<svg width="120" height="48" viewBox="0 0 120 48" fill="none" xmlns="http://www.w3.org/2000/svg">
<path d="M8.90312 13.3162V22.3841H11.8756V13.3162C11.9665 11.7652 13.2681 10.5533 14.8431 10.5533C16.4181 10.5533 17.7197 11.7652 17.8106 13.3162V22.3841H20.7831V13.3162C20.7872 10.8769 19.2572 8.69085 16.9435 7.82993C14.6297 6.96901 12.0173 7.61373 10.3872 9.44797C8.75563 7.62052 6.14758 6.98034 3.83809 7.84041C1.5286 8.70047 0.000143418 10.8811 0 13.3162V22.3841H2.97248V13.3162C3.06337 11.7652 4.36498 10.5533 5.94 10.5533C7.51502 10.5533 8.81663 11.7652 8.90752 13.3162H8.90312Z" fill="#3B3F51"/>
<path fill-rule="evenodd" clip-rule="evenodd" d="M36.3302 19.3705C34.9119 21.2668 32.6642 22.3851 30.2752 22.383C27.0954 22.3813 24.2592 20.4091 23.1891 17.4549C22.1182 14.4983 23.0478 11.1968 25.511 9.20836C27.9742 7.21994 31.4388 6.97421 34.1651 8.59456C36.8913 10.2149 38.2901 13.3513 37.659 16.4286H25.9618C26.5157 18.0078 27.9107 19.1545 29.5853 19.4071C31.2599 19.6597 32.9386 18.9767 33.9456 17.6329L36.3302 19.3705ZM34.5886 13.4878C33.9527 11.6738 32.2209 10.457 30.2752 10.4568C28.3306 10.4584 26.6006 11.675 25.9651 13.4878H34.5886Z" fill="#3B3F51"/>
<path d="M45.7211 22.383V19.4509C44.0794 19.4509 42.7486 18.1381 42.7486 16.5187V0H39.7761V16.5285C39.7761 18.0829 40.4028 19.5735 41.518 20.6717C42.6331 21.7699 44.1453 22.3856 45.7211 22.383Z" fill="#3B3F51"/>
<path d="M56.6026 13.3162V22.3841H59.5751V13.3162C59.5756 11.2243 58.4443 9.29112 56.6076 8.24534C54.7709 7.19956 52.5081 7.20014 50.6719 8.24688V0.0358353H47.6995V22.383H50.6719V13.3151C50.6083 12.2289 51.1596 11.1973 52.104 10.6353C53.0483 10.0733 54.2306 10.0733 55.175 10.6353C56.1194 11.1973 56.6706 12.2289 56.607 13.3151L56.6026 13.3162Z" fill="#3B3F51"/>
<path fill-rule="evenodd" clip-rule="evenodd" d="M69.1611 7.46281C73.338 7.46241 76.7245 10.8021 76.7251 14.9224C76.7254 16.9012 75.9287 18.7991 74.5103 20.1985C73.0918 21.5979 71.1679 22.3841 69.1618 22.3841C64.9849 22.3841 61.5987 19.0441 61.5985 14.9238C61.5983 10.8035 64.9841 7.46321 69.1611 7.46281ZM64.5622 14.9224C64.5622 17.4282 66.6215 19.4595 69.1618 19.4595C71.7021 19.4595 73.7614 17.4282 73.7614 14.9224C73.7614 12.4165 71.7021 10.3852 69.1618 10.3852C66.6215 10.3852 64.5622 12.4165 64.5622 14.9224Z" fill="#3B3F51"/>
<path d="M81.6716 13.3162C81.6716 11.6968 83.0024 10.3841 84.644 10.3841V7.45195C81.3662 7.45195 78.709 10.0731 78.709 13.3064V22.3743H81.6815L81.6716 13.3162Z" fill="#3B3F51"/>
<path d="M0 38.8648V47.9327H2.97248V38.8648C2.97248 37.2454 4.3033 35.9327 5.94495 35.9327V33.0136C4.36974 33.011 2.85809 33.6262 1.743 34.7237C0.627919 35.8212 0.000874387 37.311 0 38.8648H0Z" fill="#3B3F51"/>
<path fill-rule="evenodd" clip-rule="evenodd" d="M9.48666 35.9354C11.5789 33.2635 15.2359 32.3216 18.3853 33.6434C19.5424 34.1315 20.5571 34.8976 21.3369 35.8719V47.8914H18.3853V47.2995C15.2359 48.6214 11.5789 47.6795 9.48666 45.0076C7.39442 42.3357 7.39442 38.6073 9.48666 35.9354ZM12.1096 43.5711C13.777 45.3106 16.5314 45.4628 18.3853 43.9178V37.0241C16.5314 35.4791 13.777 35.6313 12.1096 37.3708C10.4422 39.1103 10.4422 41.8316 12.1096 43.5711Z" fill="#3B3F51"/>
<path d="M30.055 39.0223H27.8355C26.9782 39.0223 26.2832 38.3367 26.2832 37.491C26.2832 36.6454 26.9782 35.9598 27.8355 35.9598H32.3999V33.0353H27.8355C25.3427 33.0353 23.3218 35.0287 23.3218 37.4878C23.3218 39.9468 25.3427 41.9403 27.8355 41.9403H30.055C30.9123 41.9403 31.6073 42.6258 31.6073 43.4715C31.6073 44.3172 30.9123 45.0027 30.055 45.0027H25.4906V47.9262H30.055C32.5479 47.9262 34.5687 45.9327 34.5687 43.4737C34.5687 41.0146 32.5479 39.0212 30.055 39.0212V39.0223Z" fill="#3B3F51"/>
<path d="M40.4312 25.5486H37.4588V33.0136H34.5688V35.9457H37.4643V42.0858C37.4643 45.3191 40.1215 47.9403 43.3993 47.9403V45.0081C41.7577 45.0081 40.4268 43.6954 40.4268 42.076V35.937H43.3993V33.0136H40.4268L40.4312 25.5486Z" fill="#3B3F51"/>
<path d="M45.4128 38.8648V47.9327H48.3853V38.8648C48.3853 37.2454 49.7161 35.9327 51.3578 35.9327V33.0136C49.7826 33.011 48.2709 33.6262 47.1558 34.7237C46.0408 35.8212 45.4137 37.311 45.4128 38.8648H45.4128Z" fill="#3B3F51"/>
<path fill-rule="evenodd" clip-rule="evenodd" d="M52.5191 38.987C53.2595 35.5877 56.3035 33.1583 59.8282 33.1537V33.158C62.076 33.1558 64.2058 34.15 65.6293 35.8659C67.0528 37.5818 67.6194 39.8379 67.1724 42.0109H55.5357C56.0879 43.5819 57.4767 44.7221 59.1431 44.9726C60.8095 45.2232 62.4795 44.5428 63.4811 43.2054L65.8535 44.9343C63.7553 47.728 59.9657 48.6995 56.754 47.267C53.5423 45.8346 51.7787 42.3863 52.5191 38.987ZM59.8282 36.0617C57.891 36.0617 56.167 37.2736 55.5346 39.0798H64.1218C63.4895 37.2736 61.7654 36.0617 59.8282 36.0617Z" fill="#3B3F51"/>
<path d="M69.3325 33.082H72.3006V47.9327H69.3325V33.082Z" fill="#3B3F51"/>
<path fill-rule="evenodd" clip-rule="evenodd" d="M74.8601 37.6191C76.0308 34.8313 78.7886 33.0136 81.8477 33.0136C86.0248 33.0136 89.411 36.3538 89.411 40.4742C89.411 43.4918 87.5683 46.2122 84.7421 47.3669C81.9158 48.5217 78.6627 47.8834 76.4996 45.7497C74.3366 43.6159 73.6895 40.407 74.8601 37.6191ZM77.5982 42.2105C78.3101 43.906 79.9873 45.0114 81.8477 45.0114V45.0081C84.3867 45.0081 86.4455 42.9788 86.4473 40.4742C86.4473 38.6391 85.3267 36.9847 83.6079 36.2824C81.8891 35.5801 79.9108 35.9683 78.5953 37.2659C77.2798 38.5636 76.8863 40.5151 77.5982 42.2105Z" fill="#3B3F51"/>
<path fill-rule="evenodd" clip-rule="evenodd" d="M100.764 7.32814H100.825C104.595 7.32814 107.651 10.3426 107.651 14.0612C107.651 17.7797 104.595 20.7942 100.825 20.7942H100.764C96.994 20.7942 93.938 17.7797 93.938 14.0612C93.938 10.3426 96.994 7.32814 100.764 7.32814ZM96.9869 15.6313C97.6308 17.1407 99.1344 18.1177 100.795 18.1053C103.044 18.0863 104.859 16.2829 104.861 14.0633C104.861 12.4258 103.86 10.95 102.325 10.3262C100.79 9.70241 99.0248 10.0538 97.8553 11.2162C96.6859 12.3785 96.3429 14.122 96.9869 15.6313Z" fill="#2BC866"/>
<path fill-rule="evenodd" clip-rule="evenodd" d="M114.411 33.1059L119.761 43.1392H119.76C120.173 44.1218 119.961 45.2522 119.219 46.0241C118.477 46.796 117.344 47.0647 116.327 46.7099L109.832 44.4424L102.419 47.6004C101.906 47.8169 101.354 47.9278 100.796 47.9262C100.237 47.9278 99.6849 47.8169 99.1718 47.6004L94.8903 45.777L91.7571 44.4424L91.1296 44.6595C91.572 43.71 91.8606 42.6979 91.985 41.6601C92.1098 41.6764 92.2317 41.7096 92.3472 41.7589L100.254 45.1254C100.599 45.2717 100.991 45.2717 101.336 45.1254L109.242 41.7589C109.558 41.6242 109.914 41.6122 110.238 41.7253L117.241 44.1687L112.113 34.6632L106.298 32.4043L104.345 35.722C103.618 36.9724 102.266 37.7403 100.804 37.7321H100.791C99.3301 37.7403 97.9775 36.9724 97.2507 35.722L95.6257 32.9625L95.2954 32.4033L90.0275 34.4492C89.4296 33.6613 88.7187 32.9633 87.9171 32.3772L87.9369 32.3685L93.9083 30.0489L88.5897 21.0168C88.0837 20.1578 87.6729 19.2476 87.3644 18.3019C85.697 13.3928 86.936 7.97639 90.5791 4.24941L93.3094 2.07747C97.9184 -0.645873 103.673 -0.645873 108.282 2.07747L111.012 4.24941C114.655 7.97639 115.894 13.3928 114.227 18.3019C113.918 19.2476 113.507 20.1578 113.001 21.0168L107.683 30.0489L113.653 32.3707L113.673 32.3794C114.007 32.5157 114.272 32.7769 114.411 33.1059ZM100.796 35.0401C101.281 35.0401 101.729 34.784 101.97 34.3689L110.71 19.4682C111.081 18.8363 111.387 18.1699 111.624 17.4787C111.67 17.3376 111.715 17.1975 111.754 17.0563C111.768 17.0083 111.784 16.9612 111.804 16.9151C112.307 15.1483 112.362 13.2867 111.964 11.4939C111.869 11.3626 111.798 11.2155 111.755 11.0595C111.227 9.18096 110.207 7.4722 108.799 6.10425L108.614 5.92398C106.543 3.87301 103.729 2.72014 100.794 2.72014C97.8591 2.72014 95.045 3.87301 92.9736 5.92398L92.7886 6.10425C91.3804 7.4722 90.3611 9.18096 89.8327 11.0595C89.7897 11.2155 89.7189 11.3626 89.6235 11.4939C89.2261 13.2867 89.2813 15.1483 89.7842 16.9151C89.8035 16.9612 89.82 17.0083 89.8338 17.0563C89.8745 17.1986 89.9174 17.3386 89.9637 17.4787C90.2013 18.1699 90.5073 18.8363 90.8774 19.4682L99.6209 34.3689C99.8623 34.784 100.31 35.0401 100.796 35.0401Z" fill="#2BC866"/>
</svg>
