<svg xmlns="http://www.w3.org/2000/svg" xmlns:xlink="http://www.w3.org/1999/xlink" width="219.123" height="153.528" viewBox="0 0 219.123 153.528">
  <defs>
    <clipPath id="clip-path">
      <path id="Clip_8" data-name="Clip 8" d="M.294,11.891,0,141.216l41.655-11.891,41.6,12.075,41.657-11.891,41.6,12.074,41.642-5.9L208.45,6.359l-41.642,5.9L125.207.184,83.551,12.075,41.95,0" transform="translate(0.237 0.08)" fill="none"/>
    </clipPath>
    <clipPath id="clip-path-2">
      <path id="Clip_11" data-name="Clip 11" d="M.294,11.891,0,141.216l41.655-11.891,41.6,12.075,41.657-11.891,41.6,12.074,41.642-5.9L208.45,6.359l-41.642,5.9L125.207.184,83.551,12.075,41.95,0Z" transform="translate(0.237 0.08)" fill="none"/>
    </clipPath>
    <filter id="Fill_49" x="89.01" y="44.027" width="42" height="56.001" filterUnits="userSpaceOnUse">
      <feOffset dy="7" input="SourceAlpha"/>
      <feGaussianBlur stdDeviation="2.5" result="blur"/>
      <feFlood flood-opacity="0.149"/>
      <feComposite operator="in" in2="blur"/>
      <feComposite in="SourceGraphic"/>
    </filter>
  </defs>
  <g id="Group_4" data-name="Group 4" transform="translate(-0.49 -0.473)">
    <g id="Group_60" data-name="Group 60">
      <path id="Fill_1" data-name="Fill 1" d="M0,153.5H0L.32,13.394,47.244,0,88.835,12.071,130.483.184l41.967,12.18,46.534-6.592-.318,139.781-47.286,6.7-41.216-11.963L88.518,152.177,46.926,140.106,0,153.5Zm130.188-24.031h0l41.968,12.18,35.979-5.1.271-118.791-36.732,5.2L130.458,11,88.811,22.892,47.219,10.82,10.852,21.2l-.27,118.466L46.95,129.286l41.592,12.071,41.646-11.887h0Z" transform="translate(0.508 0.5)" fill="#fff"/>
      <path id="Fill_2" data-name="Fill 2" d="M166.7,12.251,125.125.183,83.5,12.067,41.923,0,.294,11.884,0,141.133l41.628-11.884L83.2,141.316l41.629-11.884L166.4,141.5l41.615-5.9.294-129.249Z" transform="translate(5.589 6.5)" fill="#f1f6f9"/>
      <path id="Fill_3" data-name="Fill 3" d="M.294,11.884,0,141.133l41.628-11.884L83.2,141.316l41.629-11.884L166.405,141.5l41.615-5.9.294-129.25-41.615,5.9L125.125.183,83.5,12.067,41.922,0Z" transform="translate(5.589 6.5)" fill="#f1f6f9"/>
      <path id="Fill_4" data-name="Fill 4" d="M0,9.511,11.093,33h17.36l-4.96-17.974L15.015,0Z" transform="translate(73.672 61.5)" fill="rgba(59,63,81,0.5)"/>
      <path id="Fill_5" data-name="Fill 5" d="M11.048,4.931,0,9.7l2.189-.052L8.734,33l36.935-7.265L45.727,0Z" transform="translate(168.684 13)" fill="rgba(85,105,118,0.5)"/>
      <path id="Fill_6" data-name="Fill 6" d="M0,5.838l3.63.3L15.651,37.5l31.6-14.785-5.676-10.1L32.013,0Z" transform="translate(24.896 50)" fill="rgba(105,120,130,0.5)"/>
      <g id="Group_52" data-name="Group 52" transform="translate(5.589 6.5)">
        <g id="Group_9" data-name="Group 9">
          <path id="Clip_8-2" data-name="Clip 8" d="M.294,11.891,0,141.216l41.655-11.891,41.6,12.075,41.657-11.891,41.6,12.074,41.642-5.9L208.45,6.359l-41.642,5.9L125.207.184,83.551,12.075,41.95,0" transform="translate(0.237 0.08)" fill="none"/>
          <g id="Group_9-2" data-name="Group 9" clip-path="url(#clip-path)">
            <path id="Fill_7" data-name="Fill 7" d="M.683.655.011.673C0,.45,0,.227,0,.005L.672,0c0,.218.006.437.011.655" transform="translate(35.921 -4.875)" fill="#c7cedc"/>
          </g>
        </g>
        <g id="Group_12" data-name="Group 12">
          <path id="Clip_11-2" data-name="Clip 11" d="M.294,11.891,0,141.216l41.655-11.891,41.6,12.075,41.657-11.891,41.6,12.074,41.642-5.9L208.45,6.359l-41.642,5.9L125.207.184,83.551,12.075,41.95,0Z" transform="translate(0.237 0.08)" fill="none"/>
          <g id="Group_12-2" data-name="Group 12" clip-path="url(#clip-path-2)">
            <path id="Fill_10" data-name="Fill 10" d="M.321.9C.21.7.1.506,0,.322L.587,0C.692.186.8.38.912.583Z" transform="translate(50.631 39.921)" fill="#c7cedc"/>
          </g>
        </g>
        <g id="Group_15" data-name="Group 15">
          <path id="Clip_14-2" data-name="Clip 14" d="M.294,11.891,0,141.216l41.655-11.891,41.6,12.075,41.657-11.891,41.6,12.074,41.642-5.9L208.45,6.359l-41.642,5.9L125.207.184,83.551,12.075,41.95,0Z" transform="translate(0.237 0.08)" fill="none"/>
          <g id="Group_15-2" data-name="Group 15" clip-path="url(#clip-path-2)">
            <path id="Fill_13" data-name="Fill 13" d="M7.193,17.654h0c-.164-.277-.317-.532-.465-.778L6.6,16.668l-.055-.09.578-.338.055.091c.155.256.363.6.594.99l-.581.333ZM5.9,15.489h0c-.242-.422-.434-.778-.605-1.122l.6-.292c.167.336.353.683.587,1.09l-.584.324ZM4.765,13.2h0c-.157-.376-.307-.764-.459-1.185l.634-.22c.152.421.3.8.447,1.154l-.621.252ZM3.9,10.819h0c-.118-.369-.242-.774-.37-1.206l.646-.184c.12.408.242.809.365,1.193l-.64.2ZM3.181,8.4h0c-.1-.359-.207-.756-.328-1.214l.65-.167c.106.4.215.8.328,1.208L3.182,8.4Zm-.75-2.351h0q-.235-.56-.487-1.156l.621-.254.177.42q.159.377.31.74l-.621.251ZM1.456,3.732h0L.967,2.573l.622-.253.488,1.158-.62.253ZM.481,1.412h0Q.244.839,0,.248L.623,0c.144.349.3.718.482,1.161l-.622.251Z" transform="translate(42.81 21.504)" fill="#c7cedc"/>
          </g>
        </g>
        <g id="Group_18" data-name="Group 18">
          <path id="Clip_17-2" data-name="Clip 17" d="M.294,11.891,0,141.216l41.655-11.891,41.6,12.075,41.657-11.891,41.6,12.074,41.642-5.9L208.45,6.359l-41.642,5.9L125.207.184,83.551,12.075,41.95,0Z" transform="translate(0.237 0.08)" fill="none"/>
          <g id="Group_18-2" data-name="Group 18" clip-path="url(#clip-path-2)">
            <path id="Fill_16" data-name="Fill 16" d="M.248.859,0,.243.625,0,.873.615Z" transform="translate(42.08 19.712)" fill="#c7cedc"/>
          </g>
        </g>
        <g id="Group_21" data-name="Group 21">
          <path id="Clip_20-2" data-name="Clip 20" d="M.294,11.891,0,141.216l41.655-11.891,41.6,12.075,41.657-11.891,41.6,12.074,41.642-5.9L208.45,6.359l-41.642,5.9L125.207.184,83.551,12.075,41.95,0" transform="translate(0.237 0.08)" fill="none"/>
          <g id="Group_21-2" data-name="Group 21" clip-path="url(#clip-path)">
            <path id="Fill_19" data-name="Fill 19" d="M.777.676.11.756S.083.536,0,.129L.66,0C.747.435.776.666.777.676" transform="translate(64.084 65.809)" fill="#c7cedc"/>
          </g>
        </g>
        <g id="Group_24" data-name="Group 24">
          <path id="Clip_23-2" data-name="Clip 23" d="M.294,11.891,0,141.216l41.655-11.891,41.6,12.075,41.657-11.891,41.6,12.074,41.642-5.9L208.45,6.359l-41.642,5.9L125.207.184,83.551,12.075,41.95,0Z" transform="translate(0.237 0.08)" fill="none"/>
          <g id="Group_24-2" data-name="Group 24" clip-path="url(#clip-path-2)">
            <path id="Fill_22" data-name="Fill 22" d="M.3,1.264C.219.947.12.586,0,.187L.645,0C.767.408.869.776.952,1.1Z" transform="translate(63.533 63.59)" fill="#c7cedc"/>
          </g>
        </g>
        <g id="Group_27" data-name="Group 27">
          <path id="Clip_26-2" data-name="Clip 26" d="M.294,11.891,0,141.216l41.655-11.891,41.6,12.075,41.657-11.891,41.6,12.074,41.642-5.9L208.45,6.359l-41.642,5.9L125.207.184,83.551,12.075,41.95,0Z" transform="translate(0.237 0.08)" fill="none"/>
          <g id="Group_27-2" data-name="Group 27" clip-path="url(#clip-path-2)">
            <path id="Fill_25" data-name="Fill 25" d="M.216.84Q.115.54,0,.218L.635,0c.078.218.15.428.219.632Z" transform="translate(62.978 61.867)" fill="#c7cedc"/>
          </g>
        </g>
        <g id="Group_30" data-name="Group 30">
          <path id="Clip_29-2" data-name="Clip 29" d="M.294,11.891,0,141.216l41.655-11.891,41.6,12.075,41.657-11.891,41.6,12.074,41.642-5.9L208.45,6.359l-41.642,5.9L125.207.184,83.551,12.075,41.95,0Z" transform="translate(0.237 0.08)" fill="none"/>
          <g id="Group_30-2" data-name="Group 30" clip-path="url(#clip-path-2)">
            <path id="Fill_28" data-name="Fill 28" d="M49.387,230.711h0l-8.155,0c-2.475-2.223-4.918-4.543-7.259-6.9l-.082.029a1.441,1.441,0,0,1-.268.07,1.5,1.5,0,0,1-.246.02,1.538,1.538,0,0,1-1.073-.443,15.961,15.961,0,0,0-.427,7.215.012.012,0,0,1,0,.005H26.433a25.761,25.761,0,0,1,2.045-12.685c-1.207-1.337-2.365-2.666-3.442-3.951-1.368-1.633-3.352-2.427-6.063-2.427-4.61,0-10.6,2.281-16.939,4.7q-1.012.386-2.035.772v-5.674l.095-.036,0,0a89.857,89.857,0,0,1,14.224-4.559c-.468-.434-.906-.865-1.338-1.317-1.369-1.436-2.363-3.976-2.955-7.549l-2.2-.2a1.512,1.512,0,0,1-1.347-1.206L3.069,178.807,0,179.084v-2.991l2.5-.226-2.5-13V146.87l5.529,28.723,3.8-.344s0-.009,0-.013v-.005A233.009,233.009,0,0,0,0,142.55V128.891c5.068-1.816,12-5.547,21.819-11.742a68.825,68.825,0,0,0-6.006-5.7C12.785,112.026,5.659,116,0,119.522v-6.253c6.028-3.575,11.178-6.074,14.13-6.859l-.037-1.507c-.027-1.15-.931-1.991-3.784-4.477l-.013-.011c-1.85-1.613-4.382-3.821-7.607-7.09L0,96.382V91.833l.6-.679-.316-.338-.008-.009L.262,90.8,0,90.515V86.055c1,1.124,2.016,2.229,3.014,3.284l10.495-4.374a1.526,1.526,0,0,1,1.822.508L33,109.929c.969-.631,2.3-1.494,3.57-2.31.378-.242.749-.472,1.093-.683L18.275,73.1a1.457,1.457,0,0,1-.085-1.287,1.493,1.493,0,0,1,.968-.869l1.743-.516L16.971,57.083l-2.31.435,2.732,7.069a1.482,1.482,0,0,1-.708,1.847l-6.558,3.408a1.539,1.539,0,0,1-.7.172,1.513,1.513,0,0,1-1.339-.794,1.459,1.459,0,0,1-.109-1.128,1.486,1.486,0,0,1,.741-.885l5.375-2.793-2.446-6.33-6.18,1.163a1.526,1.526,0,0,1-1.573-.685L0,52.315V48.323a1.543,1.543,0,0,1,.207-.014,1.507,1.507,0,0,1,1.289.71l4.426,7.111,6.376-1.2.01,0,.042-.008,3.776-.71-2.037-6.918a1.506,1.506,0,0,1-.049-.264L0,48.1V45.773l15.763-1.2a56.326,56.326,0,0,1-1-20.913c.111-.921.22-1.792.321-2.6v-.008c.772-6.166,1.16-9.261-.231-12.744C14,6.173,12.424,3.687,9.6,0h6.63a32.768,32.768,0,0,1,3.611,6.3,12.036,12.036,0,0,1,5.325-1.4q.114,0,.228,0c.738.02,3.172.041,7.234.064L33.525,0h2.389l-.9,4.976c3.2.015,7.11.031,11.626.047.044-1.414.092-3.011.148-5.023h5.379c-.056,2.008-.1,3.609-.148,5.04,8.953.028,17.337.048,20.494.056h.4L73.043,0h1.68l-.134,5.35,12.52,6.013L90.995,3.7A118.534,118.534,0,0,1,77.243,0h8.082c2.258.6,4.441,1.1,6.489,1.5.09-.482.173-.988.244-1.5h2.383c-.083.63-.187,1.275-.31,1.917a53.063,53.063,0,0,0,6.019.662c.959.044,2.1.1,3.326.147L103.667,0h2.695l-.2,2.829c2.367.082,4.3.122,5.91.122a19.376,19.376,0,0,0,5-.36A10.522,10.522,0,0,0,117.615,0h2.365a11.8,11.8,0,0,1-.94,3.892c-.516.9-1.776,1.381-6.947,1.381-2.58,0-6.183-.114-12.05-.38A55.946,55.946,0,0,1,93.4,4.142l-4.175,8.236,8.914,4.281.128-.047c3.239-1.231,9.446-2,18.449-2.281l-.055-2.273-.905-.027a1.158,1.158,0,0,1-.039-2.314l7.13-.445.074,0a1.172,1.172,0,0,1,1.175,1.086,1.142,1.142,0,0,1-.288.835,1.168,1.168,0,0,1-.813.394l-3.986.248.059,2.436c1.819-.039,3.737-.058,5.7-.058h.44L123.631,5.2a1.111,1.111,0,0,1,.26-.926,1.184,1.184,0,0,1,.9-.407l19.224-.082a1.186,1.186,0,0,1,.69.223c-.425-1.348-.836-2.7-1.224-4.012h5.61c.234.771.434,1.422.631,2.049l5.344-.735L155.031,0h2.354l.024.992,5.8-.8c-.006-.047-.01-.093-.015-.14V.048l0-.048h2.7a48.508,48.508,0,0,0,1.05,5.044c.322,1.308.655,2.659.952,4.108a42.42,42.42,0,0,0,1.162,4.226l4.4-.789,8.715-2.7a1.218,1.218,0,0,1,.348-.052c2.579-1.267,7.65-3.748,12.632-6.133,3.073-1.471,5.719-2.716,7.863-3.7h8.09l8.038,15.956,4.848-1.717,10.376-3.675V16.19l-4.988,1.767-.049.017-6.4,2.265c.383,1.295,1.172,4.083,2.155,8.2l9.278-3.937v2.521l-8.743,3.711c1.344,5.891,2.558,12.2,3.609,18.76,1.1-.052,2.885-.124,5.134-.18v2.655c-2.03.049-3.688.112-4.722.157.34,2.233.663,4.5.959,6.746l3.763.084V61.6l-3.423-.075c.221,1.779.423,3.5.6,5.127.623.032,1.572.049,2.822.052v2.97c-1.016,0-1.859-.017-2.507-.04.188,1.852.365,3.737.526,5.6l1.981.058v2.979l-1.564-.045.176,4.841a1.453,1.453,0,0,1-.018.275,1.436,1.436,0,0,1,.061.271c.749,6.51,1.176,12.309,1.271,17.234l.064.006h.01v2.326l-.021,0-.032,0c0,1.722-.054,3.329-.146,4.774a38.349,38.349,0,0,1-.571,4.809l.469.094.3.059v3.379c-.668-.13-1.33-.265-1.969-.4-2.311-.485-5.047-.93-8.133-1.322l-.455,1.787,2.959-.069h.026a1.192,1.192,0,0,1,.85.357,1.151,1.151,0,0,1,.325.878l-1.49,22.295a1.159,1.159,0,0,1-.977,1.066,1.13,1.13,0,0,1-.192.016l-.081,0a1.172,1.172,0,0,1-.812-.4,1.141,1.141,0,0,1-.284-.833l1.4-21.031-3.217.075h-.029a1.176,1.176,0,0,1-.918-.435,1.153,1.153,0,0,1-.221-1l.759-2.981c-1.064-.12-2.192-.238-3.35-.348l-.194,3.579a1.168,1.168,0,0,1-1.174,1.1l-.064,0a1.168,1.168,0,0,1-1.111-1.219l.2-3.668c-.774-.066-1.531-.128-2.313-.188l.1,4.04a1.169,1.169,0,0,1-1.148,1.184h-.027a1.175,1.175,0,0,1-1.176-1.131l-.1-4.267c-1.22-.084-2.478-.165-3.738-.239l.086,4.483a.837.837,0,0,1-.7.831.943.943,0,0,1-.124.011h-.017a.837.837,0,0,1-.839-.811l-.089-4.608c-1.418-.078-2.951-.153-4.555-.223l-.478,2.381a.84.84,0,0,1-.825.667.861.861,0,0,1-.164-.016.834.834,0,0,1-.538-.356.81.81,0,0,1-.122-.616l.428-2.133c-1.634-.066-3.359-.127-5.273-.186.151.813.237,1.258.242,1.279a1.312,1.312,0,0,1-.213,1.007,1.347,1.347,0,0,1-.88.553l-4.125.69c0,.95.036,2.693.177,5.594.1,2.112-.458,3.514-1.662,4.168a3.015,3.015,0,0,1-1.457.354,4.384,4.384,0,0,1-1.1-.15l-.111,7.471a1.329,1.329,0,0,1-1.12,1.285,1.25,1.25,0,0,1-.193.018l-2.783.065c.432,3.044.9,6.315,1.385,9.721a34.827,34.827,0,0,1,3.5-.172,35.652,35.652,0,0,1,8.234.943c5.547,1.318,20.865,2.911,31.569,2.911a56.942,56.942,0,0,0,8.305-.481v2.339a62.01,62.01,0,0,1-8.276.45c-4.307,0-8.75-.249-11.72-.458a162.572,162.572,0,0,1-20.432-2.509,33.287,33.287,0,0,0-7.686-.875c-1.362,0-2.473.081-3.165.149,1.13,7.859,1.952,13.407,2.665,17.99.643,4.131,1.525,8.873,2.623,14.1,5.951-.12,12.774-.625,22.123-1.637,5.857-.633,13.887-.994,23.868-1.071v5.3c-9.81.073-17.642.419-23.28,1.03-9.026.976-15.678,1.484-21.568,1.647,2.528,11.325,5.325,21.849,6.41,25.848a134.975,134.975,0,0,0,13.288-2.759,111.971,111.971,0,0,1,25.15-3.894v5.295a108.125,108.125,0,0,0-23.7,3.7,150.92,150.92,0,0,1-16.237,3.269l-.022,0-.019,0-.02,0A202.06,202.06,0,0,1,170,218.176c-1.275.106-12.771,1.036-23.488,1.2l.23,7.411a1.5,1.5,0,0,1-1.259,1.514,1.533,1.533,0,0,1-.207.02h-.049a1.493,1.493,0,0,1-1.509-1.443l-.23-7.477h-.063c-2.757,0-5.208-.064-7.284-.192-.681-.042-1.41-.074-2.293-.1l.461,10.691c.274.02.6.03.979.03,6.55,0,25.112-3.059,28-3.947,1.831-.561,15.492-2.75,27.1-4.443,13.974-2.038,22.277-3.029,25.383-3.029a3.154,3.154,0,0,1,1.57.222,1.488,1.488,0,0,1,.77.862,1.457,1.457,0,0,1-.073,1.129,1.525,1.525,0,0,1-1.841.759,3.875,3.875,0,0,0-.456-.021c-3.049,0-15.767,1.694-26.652,3.279-12.569,1.83-23.276,3.587-24.9,4.086-.956.293-5.216,1.136-10.433,1.986H131.319l-.5-11.624a45.491,45.491,0,0,0-18.9,4.085c-.416.2-.9.418-1.514.7.765,2.323,1.311,3.976,1.513,4.586a12.706,12.706,0,0,0,1.621,2.253H107.05a2.632,2.632,0,0,1-.17-.4l-.152-.461,0-.006c-.225-.681-.658-1.991-1.241-3.761-4.7,2.081-9.643,4.219-10.587,4.626H82.448c3.054-1.262,6.322-2.806,9.712-4.59.066-.035.128-.064.189-.091.024-.009.463-.2,1.156-.5l-6.732-21.389c0-.007,0-.014-.007-.021l0-.01-3.218-10.225c-6.743,1.4-11.349,2.98-14.933,5.124a30,30,0,0,1-4.2,2.039l8.974,29.661H70.225l-8.663-28.633c-.9.294-1.852.579-2.832.848l7.451,27.786H63.054L55.8,203.664a106.362,106.362,0,0,1-13.5,2.16c-.091.174-.185.35-.305.571a42.212,42.212,0,0,1-3.159,4.611l-.044.059c-.757,1.013-1.538,2.059-2.174,3.022s-1.231,1.956-1.769,2.962c.776.82,1.568,1.64,2.354,2.435l5.2-1.867a1.519,1.519,0,0,1,1.939.887,1.458,1.458,0,0,1-.045,1.13,1.493,1.493,0,0,1-.857.779l-3.9,1.4c4.851,4.733,8.759,8.007,9.841,8.9Zm44.74-31.9h0a1.522,1.522,0,0,1,1.308.741,1.462,1.462,0,0,1,.155,1.124,1.482,1.482,0,0,1-.7.911l-4.873,2.786,6.277,19.943c2.927-1.276,5.388-2.356,7.523-3.3-2.684-8.152-6.506-19.807-9.482-29.031-3.132.491-5.612.908-7.806,1.315l2.568,8.159,4.273-2.443A1.532,1.532,0,0,1,94.126,198.815Zm11.816-8.6h0c-1.369.209-2.792.424-4.477.678l-1.127.17-.629.1c2.226,6.892,5.263,16.191,9.028,27.635l.174-.081.695-.324c.994-.467,2.046-.913,3.127-1.326l-6.791-26.848Zm16.906-2.431c-5.484.728-10.163,1.391-13.905,1.97l6.658,26.318a52.909,52.909,0,0,1,12.4-2.174l-.841-4.671-6.452,1.043a1.555,1.555,0,0,1-.247.02,1.5,1.5,0,0,1-1.491-1.248,1.462,1.462,0,0,1,.262-1.107,1.508,1.508,0,0,1,.979-.6h.006l13.311-2.151-2.169-11.163-4.539.628-.036,0-.051.007-7.58,1.048a1.555,1.555,0,0,1-.212.015,1.487,1.487,0,0,1-.209-2.963l5.742-.794Zm9.1,25.995c1.494,0,3.018.047,4.531.14,1.948.119,4.266.18,6.889.18,11.715,0,26.145-1.2,26.288-1.21.082-.006.153-.009.219-.009a180.439,180.439,0,0,0,20.714-1.956c-.865-3.2-2.583-9.7-4.382-17.191l-12.946,1.835a1.717,1.717,0,0,1-.18.014l-9.161.213h-.035a1.494,1.494,0,0,1-1.513-1.454,1.466,1.466,0,0,1,.418-1.063,1.515,1.515,0,0,1,1.059-.461l9.07-.211,12.6-1.786c-.535-2.282-1.034-4.476-1.485-6.519a121.047,121.047,0,0,1-18.479-1.67c-4.645.518-9.99,1.13-15.05,1.724l.1,4.039a1.465,1.465,0,0,1-.418,1.063,1.533,1.533,0,0,1-1.058.461l-8.454.2.192,1.925a1.5,1.5,0,0,1-1.252,1.614l-.105.013c-.05,0-.1.007-.149.007a1.5,1.5,0,0,1-1.5-1.344l-.35-3.522a1.482,1.482,0,0,1,.373-1.132,1.534,1.534,0,0,1,1.1-.5l8.57-.2-.055-2.265c-7.88.934-15.13,1.83-21.549,2.665l1.623,4.159,4.815-.666a1.55,1.55,0,0,1,.212-.015,1.507,1.507,0,0,1,1.483,1.21l2.732,14.053a1.476,1.476,0,0,1-.246,1.132,1.525,1.525,0,0,1-.988.617h-.006l-5.405.873.907,5.041C131.384,213.784,131.674,213.782,131.943,213.782ZM35.1,206.136c-1.606,0-4.543.931-8.057,2.555a12.292,12.292,0,0,1,2.138,2.015c.59.7,1.219,1.436,1.868,2.177.363-.61.711-1.163,1.059-1.688.739-1.116,1.579-2.239,2.391-3.326.415-.555.855-1.144,1.264-1.709-.173,0-.311-.01-.447-.017C35.25,206.138,35.177,206.136,35.1,206.136ZM23.986,184.575c-.481,0-.964.006-1.434.018-.518.04-1.028.06-1.517.061a19.771,19.771,0,0,0-6.166,1.04c-.339,6.561.331,14.419,2.039,16.21a19.625,19.625,0,0,0,4.542,3.646c2.641-1.415,9.265-4.706,13.709-4.706.158,0,.314,0,.464.012.257.014.56.022.9.022.61,0,1.331-.023,2.145-.068,1.975-5.334,1.322-9.984.844-13.379-.062-.062-1.6-1.538-8.225-2.393A57.246,57.246,0,0,0,23.986,184.575Zm21.2,4.838a29.39,29.39,0,0,1-.7,10.86c4.42-.547,15.348-2.2,21.34-5.788,6.4-3.829,14.382-5.626,26.876-7.6-1.37-4.3-2.21-7.023-2.5-8.1-.023-.084-.052-.182-.089-.3a263.733,263.733,0,0,0-29.5,9.39,35.377,35.377,0,0,1-7.135,2.072,20.965,20.965,0,0,1-3.414.3A13.62,13.62,0,0,1,45.183,189.413ZM10.288,178.154l-4.193.378,3.153,16.385.4.035a70.832,70.832,0,0,1-.12-10.085c.026-1.616.976-2.9,2.822-3.823A10.965,10.965,0,0,1,10.288,178.154Zm101.471-18.14h0l-21.677,6.619c1.927,3.387,3.169,5.712,4.028,7.536.027.051.051.1.07.15a20.011,20.011,0,0,1,1.219,3.118c.291,1.09,1.189,3.989,2.669,8.617l2.586-.391.011,0c2.348-.354,4.776-.72,7.338-1.117,1.877-.291,3.969-.6,6.218-.92l-1.261-13.7-1.2-9.912Zm-26.864,8.338c-6.563,2.413-22.859,8.268-32.423,10.507-6.039,1.414-7.487,2.96-7.787,3.4a3.981,3.981,0,0,0,2.047,2.05,7.819,7.819,0,0,0,3.353.648,24.1,24.1,0,0,0,8.518-1.992l.489-.193.009,0,.291-.114-.63-2.318a1.462,1.462,0,0,1,.147-1.122,1.5,1.5,0,0,1,.924-.7,1.55,1.55,0,0,1,.392-.051,1.509,1.509,0,0,1,1.46,1.1l.546,2.007c10.2-3.791,20.41-6.62,25.589-7.969C87.078,172.217,86.149,170.548,84.894,168.352Zm34.623-10.026-4.81.885,1.257,10.384c0,.014,0,.027,0,.041l1.248,13.568c8.069-1.112,18.208-2.392,30.135-3.8l-.626-26.072-3.479.639,1.843,18.23a1.5,1.5,0,0,1-1.253,1.615c-.037.006-.071.01-.1.013-.05,0-.1.008-.153.008a1.5,1.5,0,0,1-1.5-1.341l-1.816-17.977-7.916,1.454.407,8.213a1.522,1.522,0,0,1-1.436,1.561l-.074,0a1.5,1.5,0,0,1-1.51-1.417l-.388-7.807-6.811,1.251.209,14.665a1.5,1.5,0,0,1-1.259,1.489,1.761,1.761,0,0,1-.232.021h-.02a1.507,1.507,0,0,1-1.512-1.468l-.2-14.152ZM54.734,138.236c-1.731.918-3.239,1.763-4.485,2.51-2.909,1.745-9.4,2.826-13.012,3.315.577,3.3,1.1,6.5,1.563,9.516,3.359,22.011,1.983,24.071,1.244,25.177-.271.405-.608.909-3.052,1.958.822.207,1.612.448,2.349.715a5.121,5.121,0,0,1,.453-1.391c.888-1.811,2.762-3.3,5.729-4.545l-3.887-26.056a1.491,1.491,0,0,1,1.193-1.675,25.152,25.152,0,0,0,7.951-3.714c1.448-.979,3.23-2.074,5.295-3.256ZM35.575,173.17l-19.618,3.919a7.879,7.879,0,0,0,2.642,1.9,5.669,5.669,0,0,0,2.3.373c.425-.023.878-.04,1.346-.052.615-.049,1.274-.132,1.961-.247A50.44,50.44,0,0,0,35.52,175.55,18.871,18.871,0,0,0,35.575,173.17Zm118.112-31.592-4.216.1.9,37.369c1.974-.231,4.054-.472,5.878-.682Zm11.928,35.741a2.8,2.8,0,0,1,.444.035,116.821,116.821,0,0,0,16.827,1.632c-1.019-4.918-1.843-9.391-2.45-13.292-.451-2.9-.954-6.243-1.536-10.216l-16.518,1.2c-.029,0-.058,0-.087,0a1.182,1.182,0,0,1-.79-.3,1.159,1.159,0,0,1-.385-.831l-.34-14.134-4.067.1,2.542,36.51c3.616-.413,5.952-.671,6.062-.683A2.836,2.836,0,0,1,165.616,177.319ZM63.6,166.541l-15.637,4.8.465,3.115c.912-.276,1.855-.528,2.8-.749,3.232-.757,7.7-2.059,13.266-3.872ZM29.96,161.9a1.5,1.5,0,0,1,1.491,1.228,1.462,1.462,0,0,1-.243,1.1,1.5,1.5,0,0,1-.982.622l-16.994,2.969c.582,2.439,1.048,4.616,1.386,6.47l.005.022,20.793-4.154c-.311-4.214-1.011-9.851-2.082-16.755-.746-4.81-1.6-9.781-2.472-14.376L24.32,141a1.65,1.65,0,0,1-.192.045,1.533,1.533,0,0,1-1.031-.193,1.49,1.49,0,0,1-.706-.99l-1.09-5.5a1.46,1.46,0,0,1,.223-1.107,1.519,1.519,0,0,1,2.746.538l.769,3.881,5.252-1.583c-.748-3.765-1.413-6.746-1.873-8.393a21.461,21.461,0,0,0-3.223-6.4C14.3,128.187,7.241,131.963,1.609,133.92a11.928,11.928,0,0,1,1.67,2.566c2.295,4.7,6.439,17.459,9.238,28.439l17.181-3A1.536,1.536,0,0,1,29.96,161.9Zm33.206-24.724a1.514,1.514,0,0,1,1.35.823l11.636,22.875a1.468,1.468,0,0,1,.04,1.25,1.5,1.5,0,0,1-.941.839l-8.762,2.69.879,3.235C73.111,166.97,78.6,165,82.2,163.688l-.243-.417-.121-.209-.009-.015C77.678,155.9,72.974,147.8,69.51,140.5c-.787-1.66-2.12-4.225-3.961-7.623-1.974.926-4.991,2.366-8.14,3.972l1.3,2.475c2.167-1.178,3.753-1.973,3.768-1.981A1.546,1.546,0,0,1,63.166,137.177ZM61.85,160.115,46.933,164.45l.583,3.91,15.3-4.7Zm9.176-2.665-6.274,1.822.952,3.5,6.946-2.132-1.625-3.193Zm23.457-47.62a1.486,1.486,0,0,1-.454.629l-24,19.429c2.045,3.766,3.511,6.582,4.358,8.368,3.375,7.112,8.022,15.116,12.122,22.179q.333.572.658,1.132l.2.352,15.644-4.776-1.054-11.132-10.223,3.224a1.534,1.534,0,0,1-.461.071,1.506,1.506,0,0,1-1.441-1.035,1.457,1.457,0,0,1,.09-1.126,1.5,1.5,0,0,1,.888-.746l10.858-3.424-3.127-33ZM57.335,143.516c-1.894,1.089-3.523,2.093-4.844,2.985a30.1,30.1,0,0,1-7.67,3.8l1.668,11.174,14.577-4.236Zm5.166-2.828c-.809.423-1.632.863-2.447,1.308l3.916,14.4,5.681-1.651Zm39.088-30.613,4.375,46.165,5.147-1.571-.116-.958c-.192-1.073-1.825-10.624.1-15.55.228-.582.49-1.194.768-1.843l.033-.077c.085-.2.186-.432.288-.674l-1.265-.546-2.812,3.042a1.529,1.529,0,0,1-2.137.1,1.473,1.473,0,0,1-.1-2.1l3.542-3.833a1.531,1.531,0,0,1,1.726-.361l2.159.932c1.472-3.988,3.327-10.632,2.42-22.232Zm63.8,31.3h0l-2.245.509.3,12.392,15.121-1.093c-.586-4.028-1.2-8.3-1.6-11.158-5.631-.3-9.524-.522-11.569-.651Zm-19.142-7.891-12.112,1.148,1.2,10.293a1.475,1.475,0,0,1-.322,1.1,1.5,1.5,0,0,1-1.022.55L113.388,148.7c.207,2.336.506,4.058.592,4.53.005.029.01.059.013.088l.076.627,31.7-5.825a2.728,2.728,0,0,1,.481-.043,2.788,2.788,0,0,1,.349.022l-.188-7.823a.117.117,0,0,0,0-.017.053.053,0,0,0,0-.01v-.006Zm-15.124,1.435L115.1,136.435q-.175.415-.345.808l-.068.159c-.28.651-.545,1.266-.765,1.83a17.656,17.656,0,0,0-.709,6.492l18.95-1.954ZM50.481,106.071A103.919,103.919,0,0,0,39.5,112.055c-1.589,1.019-3.251,2.1-5.011,3.248l-.646.421c-1.674,1.091-2.947,1.918-4.13,2.682a26.632,26.632,0,0,1,3.888,7.887c.738,2.641,1.9,8.185,3.109,14.83,2.76-.377,9.452-1.415,11.961-2.92,4.741-2.845,11.709-6.206,15.44-7.957-1.058-1.927-2.27-4.112-3.6-6.493L49.385,130.47a1.533,1.533,0,0,1-.539.2,1.552,1.552,0,0,1-.252.021,1.526,1.526,0,0,1-.441-.065,1.5,1.5,0,0,1-.933-.805L44.7,124.386a1.457,1.457,0,0,1-.045-1.13,1.489,1.489,0,0,1,.792-.843,1.526,1.526,0,0,1,2,.735l1.811,3.9,9.788-5.909C56.621,116.83,53.739,111.758,50.481,106.071Zm120.477,6.149H169.8l-2.11,26.307c2.053.119,4.944.28,8.838.491q-.2-1.387-.395-2.772l0-.02-.095-.664-.161-1.134c-.423-2.974-.86-6.05-1.286-9.019-.768-5.363-1.378-9.553-1.921-13.188Zm-21.916,11.537.193,8.037c0,.006,0,.012,0,.019s0,.013,0,.02l.165,6.867,5.646-.131h.033l9.538-.221h.033c.037,0,.073,0,.106,0l.231.015.033,0,.026,0,.3.019,2.1-26.162-1.24,0h-.043l-1.344,0-.859,0-.064,0h-.044l.627,12.2a1.476,1.476,0,0,1-.5,1.186,1.529,1.529,0,0,1-1.008.378,1.544,1.544,0,0,1-.245-.02ZM118.762,110.67c.877,11.768-.971,18.566-2.438,22.657l14.3-1.355-1.626-20.947ZM182.9,125.408l-2.851.189c.069.481.138.959.207,1.443l.006.04,1.508,5.151,1.031-.024ZM132.035,111.13l1.576,20.281a1.365,1.365,0,0,1,.135.266l5.729-.544-1.363-19.79Zm9.117.317,1.336,19.4,3.691-.349-.2-8.433c0-.021,0-.042,0-.063l-.249-10.4-4.573-.158Zm-69.982,5.872L65.1,120.981c1.24,2.216,2.4,4.314,3.46,6.234l21.663-17.534-10.476-.363a1.493,1.493,0,0,1,.765.611,1.463,1.463,0,0,1,.182,1.121,1.482,1.482,0,0,1-.68.927l-6.268,3.783,1.068,1.572a1.459,1.459,0,0,1,.228,1.112,1.477,1.477,0,0,1-.643.952,1.527,1.527,0,0,1-2.1-.409Zm114.623-4.976-.169,10.9a2.967,2.967,0,0,0,1.059.31.337.337,0,0,0,.156-.029s.345-.272.274-1.724c-.248-5.139-.169-6.757-.159-6.924a1.33,1.33,0,0,1,1.117-1.221l3.879-.649-.04-.219-.058-.314C189.92,112.424,187.882,112.38,185.792,112.343Zm-7.682-.095h0c.476,3.2,1,6.809,1.562,10.722l3.27-.218L183.1,112.3c-1.552-.021-3.233-.039-4.993-.053Zm-29.358-.537.216,9.017,12.391,2.008-.545-10.607-5.449-.189.072,3.032a1.14,1.14,0,0,1-.318.821,1.174,1.174,0,0,1-.83.364h-.029a1.173,1.173,0,0,1-1.175-1.131l-.077-3.169Zm-82.3-14.134c-3.657,2.182-7.1,4.066-11.153,6.111,3.105,5.422,5.912,10.362,8.343,14.683l14.8-8.932a1.493,1.493,0,0,1,.365-.154l-5.821-.2a1.674,1.674,0,0,1-1.46-.946ZM17.465,93.566h0L11.88,97.817l.231.2.2.177c3.058,2.665,4.743,4.133,4.8,6.636l.032,1.374a3.6,3.6,0,0,1,1.645.785l.32.273a72.414,72.414,0,0,1,7.279,6.961c1.515-.98,2.976-1.932,4.079-2.651L17.465,93.566Zm197.691,7.277a25.149,25.149,0,0,1-.033,9.479c6.1.492,11.321,1.119,15.5,1.861a50.957,50.957,0,0,0,.653-9.323c-2.6-.291-5.9-.7-10.724-1.327l-.318-.041C218.411,101.254,216.687,101.03,215.157,100.842Zm-10.637,6.037a.843.843,0,0,1,.579.229.823.823,0,0,1,.26.579l.048,2c2.555.134,5.012.286,7.3.451l.056-.044a23.392,23.392,0,0,0-.055-9.535c-1.134-.123-1.9-.187-2.33-.194a26.526,26.526,0,0,1-4.994-.756l-.053-.011a30.85,30.85,0,0,0-6.52-.915,14.971,14.971,0,0,0-2.2.156c-.971.142-2.386.367-4.207.667.563,3.59,1.1,6.861,1.6,9.721,1.694.051,3.223.1,4.672.158l-.038-1.54a.815.815,0,0,1,.232-.59.841.841,0,0,1,.588-.256l5.041-.118Zm-.822,1.674-3.36.078.02.818c1.06.043,2.161.093,3.366.151Zm-13.941-8.608h0c-3.494.587-7.932,1.35-13.191,2.27.328,2.033.68,4.294,1.048,6.72,4.794.034,9.387.107,13.65.215-.479-2.784-.986-5.881-1.507-9.205ZM159.463,63.252a1.341,1.341,0,0,1,1.327,1.074l3.862,20.138a1.409,1.409,0,0,1-.215,1.058,1.392,1.392,0,0,1-.867.589l-.012,0h-.007l-4.092.607,4.123,20.678c.01.041.016.084.021.117a1.442,1.442,0,0,1,.013.145l.064,1.256.3.01.825,0,.5,0c1.407,0,3.158-.011,5.135-.011l1.731,0c-.768-5.038-1.382-8.811-1.88-11.531-.454-2.478-.955-5.276-1.485-8.239l0-.017-.165-.921c-1.367-7.655-3.068-17.182-4.787-25.875l-2.2.325c-.036.006-.075.009-.127.013a59.152,59.152,0,0,0-6.689.854l4.1,20.541,2.827-.432-3.605-18.8a1.306,1.306,0,0,1,.206-.99,1.331,1.331,0,0,1,.864-.562A1.353,1.353,0,0,1,159.463,63.252Zm-3,23.915h0l-4.564.679,1.993,19.974a1.45,1.45,0,0,1-.128.754l6.879.238-.048-.92-4.133-20.725Zm-7.559,1.124-2.948.437,2.7,19.543c.006.045.011.085.013.125l2.3.08a1.475,1.475,0,0,1-.091-.366Zm-8.849-20.165h0a43.649,43.649,0,0,1-8.026.75l4.136,38.555a1.467,1.467,0,0,1-.039.531l9.48.329-5.551-40.165Zm-7.988,29.456-7.44.823-.044.005-5.14.567,1.7,8.466,12.038.417c0-.016-.007-.032-.01-.047a.458.458,0,0,1-.013-.069ZM116.427,99.31h0l-7.061.78,2.136,7.018,5.581.194c.043,0,.094,0,.145.005l.811.028-1.611-8.025ZM96.475,97.574a1.514,1.514,0,0,1,1.343.8,1.46,1.46,0,0,1,.1,1.129,1.484,1.484,0,0,1-.745.879l-5.445,2.794,1.626,3.3L108.31,107l-2.353-7.735c0-.01-.006-.019-.009-.028l-.006-.021-3.436-11.3L95.709,77.1c-4.327,3.365-8.459,6.466-12.278,9.215l6.981,14.18,5.366-2.754A1.537,1.537,0,0,1,96.475,97.574ZM86.5,99.384l-8.9,6.549,12.336.428ZM41.951,91.257l-7.512,3.991,5.816,10.15c2.581-1.468,5.159-2.752,7.578-3.942C45.992,98.256,44.014,94.824,41.951,91.257ZM80.943,88.09h0c-4.128,2.911-7.928,5.44-11.619,7.734l4.429,9.222L85.16,96.655,80.943,88.09Zm149.251-2.547-17.962,3.381c.846,3.26,1.655,6.463,2.4,9.52,1.743.209,3.852.482,6.228.792l.324.042h.006c2.968.385,6.663.864,10.059,1.247C231.155,96.155,230.8,91.113,230.194,85.543Zm-41.446,7.8-13.275,2.5.061.334.049.265c.189,1.037.393,2.209.607,3.484,5.335-.932,9.781-1.7,13.212-2.272-.215-1.4-.435-2.846-.653-4.309ZM51.2,67.367,35.858,70.094c6.286,10.78,11.935,20.531,16.791,28.98A179.678,179.678,0,0,0,74.4,86.155c-.51-2.2-2.307-8.182-7.964-16.278-1.063-1.521-2.088-3.094-3.048-4.676L54.3,66.815l8.935,17.748a1.459,1.459,0,0,1,.08,1.13,1.486,1.486,0,0,1-.763.866,1.535,1.535,0,0,1-.671.155,1.506,1.506,0,0,1-1.356-.828L51.2,67.367Zm147.6,29h0a33.172,33.172,0,0,1,7.035.967l.034.007a24.959,24.959,0,0,0,4.548.707c.375.006.942.046,1.732.121-.885-3.591-1.7-6.772-2.232-8.807L191.39,92.849c.209,1.4.431,2.867.661,4.366,1.777-.294,3.235-.525,4.216-.669A17.506,17.506,0,0,1,198.8,96.366ZM116.591,81.626,105.281,86.7a1.486,1.486,0,0,1,.065.174l3.138,10.317,13.772-1.521C120.992,92.7,118.577,86.935,116.591,81.626ZM13.569,88.174,5.248,91.642c1.421,1.427,2.843,2.785,4.349,4.15l6.114-4.655-2.141-2.963Zm106.988-19.86a5.55,5.55,0,0,0-4.278,1.6c.091.483.168.951.236,1.429.624,4.458,6.95,19.478,8.874,23.975l6.36-.7-2.766-25.783c-2.168-.074-4.182-.232-5.652-.347l-.2-.015c-.824-.064-1.535-.119-2.112-.148C120.865,68.318,120.709,68.314,120.558,68.314Zm58.812,5.967a1.169,1.169,0,0,1,1.123.813,1.135,1.135,0,0,1-.078.876,1.164,1.164,0,0,1-.7.575l-7.311,2.247q.68,3.756,1.312,7.3l.005.03.209,1.168c.393,2.2.713,3.991,1.009,5.634L188.312,90.4c-.3-2.048-.595-4.1-.878-6.1-1-7.057-1.656-11.5-2.281-15.34l-14.095,2.462c.321,1.724.634,3.431.932,5.072l7.027-2.16A1.2,1.2,0,0,1,179.369,74.281ZM18.189,50.523h0l6.036,20.493a1.489,1.489,0,0,1-1.02,1.84l-1.365.4L32.952,92.654l7.5-3.984C30.381,71.28,20.866,55.077,18.189,50.523ZM228.812,69.551h0c-6.408.473-28.93,4.037-39.943,5.855.345,2.329.724,4.96,1.229,8.528.278,1.97.559,3.923.859,5.971l18.725-3.526a1.174,1.174,0,0,1,.572-.344,1.148,1.148,0,0,1,.292-.038,1.2,1.2,0,0,1,.518.121l18.85-3.551c-.292-4.345-.663-8.725-1.1-13.018ZM146.665,65.86c-.348.15-.654.289-.938.428A20.39,20.39,0,0,1,143,67.37L145.593,86.1l3.046-.464L146.665,65.86Zm5.21-1.7c-.779.192-1.546.4-2.277.629l2.035,20.388,4.3-.656-4.061-20.361Zm-40.366.735a65.169,65.169,0,0,0-5.331,3.865c-2.7,2.2-5.425,4.383-8.086,6.478l5.6,8.906,11.875-5.328a42.932,42.932,0,0,1-2.047-7.06A22.272,22.272,0,0,0,111.509,64.893Zm-6.258-16.146a42.482,42.482,0,0,1-3.728,2.138.8.8,0,0,1-.09.04L68.9,63.934c.628.987,1.287,1.978,1.961,2.943a58.436,58.436,0,0,1,8.211,16.012c7.1-5.059,14.843-11.016,23.677-18.211a78.831,78.831,0,0,1,8.468-5.895ZM227.89,61.456a120.848,120.848,0,0,0-14.941,1.715L197.3,66.755c-.012,0-.021.024-.03.046s-.018.044-.03.046L187.8,68.5c.216,1.329.426,2.664.625,3.965,7.377-1.218,32.071-5.236,40.075-5.838C228.316,64.961,228.111,63.222,227.89,61.456Zm-44.5-2.01h0l-14.224,2.1c.43,2.175.882,4.519,1.381,7.163L184.7,66.265c-.44-2.547-.867-4.778-1.307-6.819ZM52.637,41.073,21.461,44.915a17.262,17.262,0,0,0,.61,1.642c.547.929,5.537,9.4,12.187,20.8l17.478-3.107c.034-.008.064-.014.1-.018l9.955-1.769a65.127,65.127,0,0,1-5.733-13.175c-.322-.78-.676-1.62-1.052-2.509l-.045-.108C54.217,44.918,53.429,43.045,52.637,41.073ZM147.57,47.2h0c-14.082,5.676-25.354,11.084-33.5,16.074a21.438,21.438,0,0,1,1.517,3.78,8.839,8.839,0,0,1,4.968-1.383c.2,0,.4.005.605.016.634.032,1.394.091,2.274.16l.113.009c1.6.126,3.787.3,6.184.359a1.49,1.49,0,0,1,.478-.139,1.555,1.555,0,0,1,.158-.008,1.535,1.535,0,0,1,.695.167h.351c5.636,0,9.928-.757,13.12-2.316,6.585-3.214,15.755-3.828,16.779-3.887l2.02-.3c-1.549-7.658-2.849-13.25-3.975-17.094-3.242,1.206-6.473,2.446-9.6,3.686l1.573,3.25c.822-.383,1.51-.738,2.043-1.057a1.188,1.188,0,0,1,1.616.391,1.136,1.136,0,0,1,.137.872,1.153,1.153,0,0,1-.534.719,64.722,64.722,0,0,1-9.01,3.883,1.136,1.136,0,0,1-.205.053,1.2,1.2,0,0,1-.195.016,1.192,1.192,0,0,1-.567-.143,1.151,1.151,0,0,1,.111-2.083l4.4-1.82L147.57,47.2Zm79.05,5.132c-8.364.84-24.742,4.268-26.582,4.656l-.016,0a.684.684,0,0,1-.084.014L186.06,59.052c.437,2.045.859,4.256,1.29,6.756l9.382-1.62L212.374,60.6l.022-.006a.346.346,0,0,1,.042-.011,121.912,121.912,0,0,1,15.11-1.76C227.259,56.652,226.948,54.468,226.62,52.329ZM94.692,45.269,80.762,49.95,64.194,55.4c.93,1.976,1.984,3.977,3.133,5.946L96.136,49.829Zm84.071-.688-12.022,5.4c.595,2.625,1.238,5.642,1.911,8.965l14.156-2.09A72.482,72.482,0,0,0,178.763,44.582Zm-55.4-8.085h0c-6.571,4.61-11.81,8.187-15.572,10.63l6.012,10.113c4.9-2.84,10.748-5.816,17.393-8.846l-7.833-11.9Zm81.861-9.991c-13.759,4.866-22.659,8.006-27.21,9.6.937,2.183,1.843,4.271,2.62,6.057l.556,1.28a75.254,75.254,0,0,1,4.282,13.02l14.022-2.07c.723-.153,17.817-3.771,26.712-4.682-1-6.2-2.146-12.183-3.408-17.775l-1.62.687-2.53,1.09,1.519,3.354a.9.9,0,0,1,.054.145l.541,1.806a1.136,1.136,0,0,1-.092.875,1.164,1.164,0,0,1-.7.563,1.224,1.224,0,0,1-.139.031,1.194,1.194,0,0,1-.194.016,1.179,1.179,0,0,1-1.128-.831l-.519-1.733-1.969-4.348A1.145,1.145,0,0,1,216,32.7a1.17,1.17,0,0,1,.625-.643l3.621-1.561,2.026-.86c-.991-4.193-1.8-7.056-2.187-8.389l-4.68,1.657L207.5,25.7l2.73,4.217a1.135,1.135,0,0,1,.157.868,1.15,1.15,0,0,1-.517.73,1.173,1.173,0,0,1-.435.166,1.207,1.207,0,0,1-.2.016,1.178,1.178,0,0,1-.994-.535l-3.016-4.659ZM83.264,39.356,60.942,47.063l.064.154c.032.076.063.151.093.225a2.691,2.691,0,0,1,.112.333,45.017,45.017,0,0,0,2.027,5.5l16.771-5.521,5.007-1.682a14.2,14.2,0,0,1-1.1-3.473C83.758,41.809,83.519,40.612,83.264,39.356Zm17.278-6.078L94.92,35.286,98.408,48.92l1.84-.735a45.289,45.289,0,0,0,3.929-2.286Zm74.917,3.673c-2.387.793-6.242,2.1-11.055,3.837.559,1.883,1.165,4.2,1.8,6.886l11.632-5.224C176.99,40.5,176.19,38.65,175.46,36.951Zm-46.589-4.34c-.976.692-2.267,1.607-3.588,2.537l8.079,12.272c7.309-3.262,15.46-6.563,24.225-9.814-.534-1.314-1.2-2.885-1.9-4.547l-.006-.015c-1.749-4.147-3.927-9.308-6.186-15.269-.829.6-1.929,1.4-3.362,2.443l3.234,5.009a1.159,1.159,0,0,1,.235.274l1.376,2.222a1.135,1.135,0,0,1,.142.866,1.151,1.151,0,0,1-.524.719,1.188,1.188,0,0,1-1.615-.362l-.8-1.241L143.674,30.4l-7.72,9.812a1.172,1.172,0,0,1-.929.449h-.04a1.181,1.181,0,0,1-.935-.509ZM92.7,36.081l-1.549.553-5.641,1.947c.306,1.514.527,2.617.716,3.575a10.876,10.876,0,0,0,1.042,3.161L94.443,42.9,92.7,36.081ZM81.374,30.137,56.417,36c1.193,3.161,2.422,6.07,3.506,8.637l.067.162.051.123L82.8,37.063C82.365,34.929,81.885,32.6,81.374,30.137Zm30.708.128a1.175,1.175,0,0,1,1.176,1.13,1.143,1.143,0,0,1-.319.822,1.174,1.174,0,0,1-.83.364l-8.567.2,3.287,11.41c12.212-8,34.914-24.471,41.581-29.326-1.027-2.805-2-5.591-2.878-8.279l.978,5.054a1.138,1.138,0,0,1-.178.861,1.171,1.171,0,0,1-.757.495,1.223,1.223,0,0,1-.227.021,1.168,1.168,0,0,1-1.148-.942l-1.154-5.959-16.856.075,1.4,8.036c3.314.029,5.773.1,6.676.132l.053,0a1.158,1.158,0,0,1-.04,2.316l-16.36.05h-.006a1.165,1.165,0,0,1-.471-.1c-8.611.245-14.826.943-17.973,2.021l3.407,11.831,9.174-.213ZM25.153,7.874A9.7,9.7,0,0,0,20.743,9.2c.75,3.465.366,7.014-.324,12.517l-.061.489v.012c-.083.662-.169,1.347-.256,2.07a52.172,52.172,0,0,0,.729,18.373l30.93-3.811c-3.107-8.057-4.8-14.5-5.314-20.275l-13.258-.993-2.209,9.674a1.164,1.164,0,0,1-1.146.9,1.207,1.207,0,0,1-.235-.023,1.167,1.167,0,0,1-.925-1.338L32.087,7.939c-3.772-.021-6.054-.043-6.78-.063ZM144.236,21.6c-4.736,3.426-9.264,6.677-13.458,9.661l4.31,6.27,6.86-8.717a1.164,1.164,0,0,1,.32-.282l4.651-2.775ZM88.116,27.69l-4.491,1.721c.521,2.511,1,4.825,1.417,6.877l5.316-1.835,1.49-.533Zm81.224-5.566a53.568,53.568,0,0,1-10.16,5.4c.426,1.02.833,1.985,1.226,2.918l.247.586,0,.008c.766,1.816,1.427,3.384,1.973,4.732,4.677-1.677,8.424-2.946,10.744-3.715C171.775,28.254,170.456,25.006,169.34,22.124ZM78.635,17.065l-26.911.014A62.107,62.107,0,0,0,55.614,33.8L80.9,27.867C79.934,23.214,79.066,19.1,78.635,17.065Zm18.044,2.8-2.663,1.3L94.1,24.58a1.16,1.16,0,0,1-.75,1.106l-3.01,1.154L94.1,33.117l5.8-2.073Zm84.307-6.774h0a36.946,36.946,0,0,0-3.17,2.509l-.009.008c-1.55,1.306-3.674,3.095-6.2,4.933,1.178,3.071,2.593,6.565,4.326,10.679,4.161-1.455,12.332-4.337,24.978-8.808l-11.874-8.514a22.311,22.311,0,0,1-2.191.918,9.408,9.408,0,0,1-3.019.628,3.018,3.018,0,0,1-2-.634,2.43,2.43,0,0,1-.844-1.717ZM82.376,12.4l-1.559,3.623.014.067c.81,3.822,1.589,7.529,2.315,11.019L86.9,25.67l-1.231-2.056a1.14,1.14,0,0,1-.1-.209L83.34,17.055a1.147,1.147,0,0,1,.221-1.134l1.817-2.076Zm73.543-8.867h0l-5.485.753c2.819,8.674,5.833,16.19,7.855,21.089a51.816,51.816,0,0,0,10.2-5.486c-.434-1.162-.829-2.252-1.174-3.241L160.6,21.173a1.188,1.188,0,0,1-1.635-.3,1.137,1.137,0,0,1-.186-.864,1.15,1.15,0,0,1,.492-.746l7.272-4.9a46.462,46.462,0,0,1-1.291-4.684c-.289-1.409-.63-2.791-.931-4.01-.258-1.05-.524-2.133-.738-3.171l-7.142,1.077a1.209,1.209,0,0,1-.18.014,1.186,1.186,0,0,1-.346-.051ZM87.564,14.894l-1.778,2.033,1.975,5.61,1.367,2.281,2.6-1-.081-3.342a1.16,1.16,0,0,1,.652-1.065l2.319-1.133ZM189.149,11.38a1.18,1.18,0,0,1,.692.222l4.678,2.686,9.071,7.172,8.64-3.057,4.047-1.432L207.852.245a1.165,1.165,0,0,1-.431.327c-2.339,1.008-6.121,2.762-11.24,5.212-5.071,2.428-10.156,4.916-12.736,6.184-.22.825-.083,1.079-.082,1.081a.7.7,0,0,0,.425.094,12.82,12.82,0,0,0,4.8-1.621A1.2,1.2,0,0,1,189.149,11.38Zm-13.436,2.936-1.62.5a1.132,1.132,0,0,1-.142.034L169.8,15.6c.279.8.6,1.7.961,2.676C172.62,16.891,174.24,15.555,175.713,14.316ZM34.475,7.952l-1.321,7.3,13.149.985c-.032-1.025-.025-1.953.019-2.837.072-1.463.146-3.28.22-5.4C40.947,7.981,37.338,7.966,34.475,7.952Zm17.446.067c-.082,2.355-.157,4.2-.229,5.642-.017.338-.027.7-.031,1.1l27.15-.014,1.446-3.363-6.89-3.31C71,8.071,61.456,8.048,51.921,8.018ZM2.241,80.782a1.525,1.525,0,0,1-.513-.088,1.508,1.508,0,0,1-.86-.781C.6,79.334.306,78.708,0,78.054V70.119l3.371-1.528L0,62.33V55.97L6.791,68.586a1.475,1.475,0,0,1,.1,1.174,1.5,1.5,0,0,1-.8.876L.936,72.973c.818,1.715,1.56,3.3,2.039,4.322l12.646-5.984a1.525,1.525,0,0,1,2.019.7,1.46,1.46,0,0,1,.066,1.131,1.487,1.487,0,0,1-.774.856L2.9,80.636A1.553,1.553,0,0,1,2.241,80.782Z" transform="translate(-12.713 -20.189)" fill="#d3d9e3"/>
          </g>
        </g>
        <g id="Group_33" data-name="Group 33">
          <path id="Clip_32-2" data-name="Clip 32" d="M.294,11.891,0,141.216l41.655-11.891,41.6,12.075,41.657-11.891,41.6,12.074,41.642-5.9L208.45,6.359l-41.642,5.9L125.207.184,83.551,12.075,41.95,0" transform="translate(0.237 0.08)" fill="none"/>
          <g id="Group_33-2" data-name="Group 33" clip-path="url(#clip-path)">
            <path id="Fill_31" data-name="Fill 31" d="M0,0,3.27,37.942l48.338-2.884V5.508S44.882,4.345,32.3,4.71C20.784,5.043,0,0,0,0" transform="translate(170.046 124.419)" fill="#697882"/>
          </g>
        </g>
        <g id="Group_48" data-name="Group 48">
          <path id="Clip_47-2" data-name="Clip 47" d="M.294,11.891,0,141.216l41.655-11.891,41.6,12.075,41.657-11.891,41.6,12.074,41.642-5.9L208.45,6.359l-41.642,5.9L125.207.184,83.551,12.075,41.95,0" transform="translate(0.237 0.08)" fill="none"/>
          <g id="Group_48-2" data-name="Group 48" clip-path="url(#clip-path)">
            <path id="Stroke_46" data-name="Stroke 46" d="M0,118.239a148.271,148.271,0,0,0,24.7-12.977C38.084,96.61,61.812,83.76,68.845,79.6c17.284-10.236,31.181-24.371,45.045-32.717,17.593-10.591,48.394-21.652,74.447-30.824C213.581,7.167,234.367,0,234.367,0" transform="translate(-12.713 -6.635)" fill="none" stroke="#c7cedc" stroke-miterlimit="10" stroke-width="2" stroke-dasharray="6 8"/>
          </g>
        </g>
      </g>
      <g id="Group_59" data-name="Group 59">
        <path id="Fill_53" data-name="Fill 53" d="M.32,13.4,47.274,0l-.319,140.129L0,153.525Z" transform="translate(0.49 0.473)" opacity="0.04"/>
        <path id="Fill_57" data-name="Fill 57" d="M1.07,6.594,0,146.5l47.315-6.7L47.634,0Z" transform="translate(171.979 6.245)" opacity="0.04"/>
      </g>
      <path id="Fill_55" data-name="Fill 55" d="M.319,11.889,0,152.019l41.672-11.89L41.992,0Z" transform="translate(89.063 0.657)" opacity="0.04"/>
    </g>
    <g transform="matrix(1, 0, 0, 1, 0.49, 0.47)" filter="url(#Fill_49)">
      <path id="Fill_49-2" data-name="Fill 49" d="M13.82,41h0c-.034-.049-3.474-5-6.841-10.729a96.145,96.145,0,0,1-4.741-8.96C.8,18.114.044,15.625,0,13.913a13.555,13.555,0,0,1,3.728-9.7A13.373,13.373,0,0,1,13.181,0c.108,0,.217,0,.325,0a13.377,13.377,0,0,1,9.422,3.862A13.559,13.559,0,0,1,27,13.27c.04,1.712-.628,4.235-1.985,7.5a94.447,94.447,0,0,1-4.538,9.181C17.223,35.827,13.958,40.791,13.82,41ZM13.5,4.957a7.878,7.878,0,1,0,7.826,7.878A7.861,7.861,0,0,0,13.5,4.957Z" transform="translate(96.51 44.53)" fill="#2bc866"/>
    </g>
  </g>
</svg>
