<svg width="80" height="32" viewBox="0 0 80 32" fill="none" xmlns="http://www.w3.org/2000/svg">
<path d="M5.93541 8.87747V14.9227H7.91706V8.87747C7.97766 7.84343 8.8454 7.03553 9.89541 7.03553C10.9454 7.03553 11.8132 7.84343 11.8738 8.87747V14.9227H13.8554V8.87747C13.8581 7.25127 12.8381 5.7939 11.2957 5.21995C9.75317 4.64601 8.01155 5.07582 6.92477 6.29864C5.83709 5.08035 4.09838 4.65356 2.55872 5.22694C1.01906 5.80032 9.56119e-05 7.25408 0 8.87747V14.9227H1.98165V8.87747C2.04225 7.84343 2.90999 7.03553 3.96 7.03553C5.01001 7.03553 5.87775 7.84343 5.93835 8.87747H5.93541Z" fill="white"/>
<path fill-rule="evenodd" clip-rule="evenodd" d="M24.2202 12.9137C23.2747 14.1779 21.7761 14.9234 20.1835 14.922H20.1838C18.0639 14.921 16.1728 13.6062 15.4594 11.6366C14.7455 9.66551 15.3652 7.46452 17.0073 6.13891C18.6495 4.8133 20.9592 4.64948 22.7767 5.72971C24.5942 6.80994 25.5268 8.90084 25.106 10.9524H17.3079C17.6772 12.0052 18.6072 12.7697 19.7236 12.9381C20.84 13.1065 21.9591 12.6511 22.6305 11.7553L24.2202 12.9137ZM23.0591 8.99186C22.6351 7.78257 21.4806 6.97132 20.1835 6.97122C18.8871 6.97225 17.7338 7.78332 17.3101 8.99186H23.0591Z" fill="white"/>
<path d="M30.4807 14.922V12.9672C29.3863 12.9672 28.4991 12.0921 28.4991 11.0125V0H26.5174V11.019C26.5174 12.0553 26.9352 13.049 27.6786 13.7811C28.4221 14.5133 29.4302 14.9237 30.4807 14.922Z" fill="white"/>
<path d="M37.735 8.87747V14.9227H39.7167V8.87747C39.717 7.48286 38.9628 6.19408 37.7384 5.4969C36.5139 4.79971 35.0054 4.8001 33.7813 5.49792V0.0238914H31.7996V14.922H33.7813V8.87674C33.7389 8.15263 34.1064 7.46487 34.736 7.09019C35.3656 6.71551 36.1537 6.71551 36.7833 7.09019C37.4129 7.46487 37.7804 8.15263 37.738 8.87674L37.735 8.87747Z" fill="white"/>
<path fill-rule="evenodd" clip-rule="evenodd" d="M46.1074 4.9752C48.892 4.97494 51.1497 7.2014 51.1501 9.94824C51.1503 11.2675 50.6191 12.5328 49.6735 13.4657C48.7279 14.3986 47.4453 14.9227 46.1079 14.9227C43.3233 14.9227 41.0658 12.696 41.0657 9.9492C41.0656 7.20237 43.3228 4.97547 46.1074 4.9752ZM43.0415 9.94824C43.0415 11.6188 44.4144 12.973 46.1079 12.973C47.8014 12.973 49.1743 11.6188 49.1743 9.94824C49.1743 8.27769 47.8014 6.92344 46.1079 6.92344C44.4144 6.92344 43.0415 8.27769 43.0415 9.94824Z" fill="white"/>
<path d="M54.4477 8.87747C54.4477 7.79789 55.3349 6.92272 56.4294 6.92272V4.96796C54.2441 4.96796 52.4727 6.71539 52.4727 8.87095V14.9162H54.4543L54.4477 8.87747Z" fill="white"/>
<path d="M0 25.9099V31.9551H1.98165V25.9099C1.98165 24.8303 2.86887 23.9551 3.9633 23.9551V22.0091C2.91316 22.0073 1.90539 22.4175 1.162 23.1491C0.418613 23.8808 0.000582924 24.874 0 25.9099H0Z" fill="white"/>
<path fill-rule="evenodd" clip-rule="evenodd" d="M6.32443 23.9569C7.71926 22.1757 10.1573 21.5477 12.2569 22.429C13.0282 22.7543 13.7047 23.2651 14.2246 23.9146V31.9276H12.2569V31.533C10.1573 32.4143 7.71926 31.7863 6.32443 30.0051C4.9296 28.2238 4.9296 25.7382 6.32443 23.9569ZM8.07306 29.0474C9.18468 30.207 11.0209 30.3085 12.2569 29.2786V24.6827C11.0209 23.6528 9.18468 23.7542 8.07306 24.9139C6.96145 26.0736 6.96145 27.8877 8.07306 29.0474Z" fill="white"/>
<path d="M20.0367 26.0148H18.5571C17.9855 26.0148 17.5222 25.5578 17.5222 24.994C17.5222 24.4302 17.9855 23.9732 18.5571 23.9732H21.6V22.0235H18.5571C16.8951 22.0235 15.5479 23.3525 15.5479 24.9919C15.5479 26.6312 16.8951 27.9602 18.5571 27.9602H20.0367C20.6082 27.9602 21.0716 28.4172 21.0716 28.981C21.0716 29.5448 20.6082 30.0018 20.0367 30.0018H16.9938V31.9508H20.0367C21.6986 31.9508 23.0459 30.6218 23.0459 28.9824C23.0459 27.3431 21.6986 26.0141 20.0367 26.0141V26.0148Z" fill="white"/>
<path d="M26.9541 17.0324H24.9725V22.009H23.0459V23.9638H24.9761V28.0572C24.9761 30.2128 26.7476 31.9602 28.9328 31.9602V30.0054C27.8384 30.0054 26.9512 29.1303 26.9512 28.0507V23.958H28.9328V22.009H26.9512L26.9541 17.0324Z" fill="white"/>
<path d="M30.2752 25.9099V31.9551H32.2569V25.9099C32.2569 24.8303 33.1441 23.9551 34.2385 23.9551V22.0091C33.1884 22.0073 32.1806 22.4175 31.4372 23.1491C30.6938 23.8808 30.2758 24.874 30.2752 25.9099H30.2752Z" fill="white"/>
<path fill-rule="evenodd" clip-rule="evenodd" d="M35.0128 25.9913C35.5064 23.7251 37.5357 22.1056 39.8855 22.1024V22.1053C41.384 22.1039 42.8039 22.7667 43.7529 23.9106C44.7019 25.0546 45.0796 26.5586 44.7817 28.0072H37.0239C37.392 29.0546 38.3178 29.8147 39.4287 29.9817C40.5397 30.1488 41.653 29.6952 42.3207 28.8036L43.9024 29.9562C42.5036 31.8187 39.9772 32.4663 37.836 31.5114C35.6949 30.5564 34.5191 28.2575 35.0128 25.9913ZM39.8855 24.0411C38.594 24.0411 37.4447 24.8491 37.0231 26.0532H42.7479C42.3263 24.8491 41.177 24.0411 39.8855 24.0411Z" fill="white"/>
<path d="M46.2216 22.0547H48.2004V31.9551H46.2216V22.0547Z" fill="white"/>
<path fill-rule="evenodd" clip-rule="evenodd" d="M49.9068 25.0794C50.6872 23.2209 52.5258 22.009 54.5651 22.009C57.3499 22.009 59.6073 24.2359 59.6073 26.9828C59.6073 28.9945 58.3789 30.8081 56.4947 31.578C54.6106 32.3478 52.4418 31.9223 50.9998 30.4998C49.5577 29.0773 49.1263 26.938 49.9068 25.0794ZM51.7321 28.1403C52.2068 29.2706 53.3249 30.0076 54.5651 30.0076V30.0054C56.2578 30.0054 57.6304 28.6525 57.6316 26.9828C57.6316 25.7594 56.8845 24.6564 55.7386 24.1883C54.5928 23.7201 53.2738 23.9789 52.3969 24.844C51.5199 25.709 51.2575 27.0101 51.7321 28.1403Z" fill="white"/>
<path fill-rule="evenodd" clip-rule="evenodd" d="M67.1758 4.88543H67.2169C69.73 4.88543 71.7673 6.89508 71.7673 9.37412C71.7673 11.8532 69.73 13.8628 67.2169 13.8628H67.1758C64.6626 13.8628 62.6253 11.8532 62.6253 9.37412C62.6253 6.89508 64.6626 4.88543 67.1758 4.88543ZM64.6579 10.4209C65.0872 11.4271 66.0896 12.0784 67.1963 12.0702C68.6963 12.0575 69.906 10.8553 69.9075 9.37557C69.9075 8.28384 69.2397 7.30001 68.2164 6.88414C67.1931 6.46828 66.0165 6.70256 65.2369 7.47744C64.4572 8.25231 64.2286 9.41464 64.6579 10.4209Z" fill="white"/>
<path fill-rule="evenodd" clip-rule="evenodd" d="M76.2738 22.0706L79.8407 28.7595H79.84C80.1154 29.4145 79.9741 30.1681 79.4794 30.6827C78.9847 31.1973 78.2293 31.3764 77.5516 31.1399L73.2213 29.6282L68.2796 31.7336C67.9375 31.8779 67.5691 31.9519 67.1971 31.9508C66.825 31.9519 66.4566 31.8779 66.1145 31.7336L63.2602 30.518L61.1714 29.6282L60.753 29.773C61.048 29.14 61.2404 28.4653 61.3233 27.7734C61.4065 27.7842 61.4877 27.8064 61.5648 27.8393L66.836 30.0836C67.0663 30.1812 67.3271 30.1812 67.5574 30.0836L72.8279 27.8393C73.0385 27.7495 73.2757 27.7414 73.4921 27.8168L78.1607 29.4458L74.742 23.1088L70.8653 21.6029L69.5633 23.8147C69.0788 24.6483 68.177 25.1602 67.2029 25.1548H67.1941C66.22 25.1602 65.3183 24.6483 64.8338 23.8147L63.7505 21.975L63.5303 21.6022L60.0183 22.9662C59.6197 22.4409 59.1458 21.9755 58.6114 21.5848L58.6246 21.579L62.6055 20.0326L59.0598 14.0112C58.7225 13.4386 58.4486 12.8317 58.2429 12.2013C57.1313 8.92856 57.9573 5.31759 60.386 2.83294L62.2062 1.38498C65.2789 -0.430582 69.1152 -0.430582 72.1879 1.38498L74.0081 2.83294C76.4368 5.31759 77.2628 8.92856 76.1512 12.2013C75.9455 12.8317 75.6716 13.4386 75.3343 14.0112L71.7886 20.0326L75.7688 21.5805L75.782 21.5862C76.0045 21.6771 76.1813 21.8513 76.2738 22.0706ZM67.1971 23.3601C67.5205 23.3601 67.8193 23.1894 67.9802 22.9126L73.807 12.9788C74.0537 12.5575 74.2577 12.1133 74.4161 11.6525C74.447 11.5584 74.4763 11.465 74.5027 11.3709C74.5119 11.3389 74.523 11.3075 74.5358 11.2767C74.871 10.0989 74.9078 8.85781 74.6429 7.66263C74.5794 7.57504 74.5321 7.47697 74.5035 7.37303C74.1512 6.12064 73.4716 4.98147 72.5328 4.0695L72.4095 3.94932C71.0286 2.58201 69.1526 1.81343 67.196 1.81343C65.2394 1.81343 63.3633 2.58201 61.9824 3.94932L61.8591 4.0695C60.9203 4.98147 60.2407 6.12064 59.8884 7.37303C59.8598 7.47697 59.8126 7.57504 59.749 7.66263C59.4841 8.85781 59.5209 10.0989 59.8561 11.2767C59.8689 11.3075 59.88 11.3389 59.8892 11.3709C59.9163 11.4657 59.9449 11.5591 59.9758 11.6525C60.1342 12.1133 60.3382 12.5575 60.5849 12.9788L66.4139 22.9126C66.5749 23.1894 66.8736 23.3601 67.1971 23.3601Z" fill="white"/>
</svg>
