<svg width="38" height="36" viewBox="0 0 38 36" fill="none" xmlns="http://www.w3.org/2000/svg">
<mask id="mask0" mask-type="alpha" maskUnits="userSpaceOnUse" x="0" y="0" width="38" height="35">
<path fill-rule="evenodd" clip-rule="evenodd" d="M0 0.0760193H38V34.6184H0V0.0760193Z" fill="white"/>
</mask>
<g mask="url(#mask0)">
<path fill-rule="evenodd" clip-rule="evenodd" d="M36.4783 23.5938C36.4767 23.8116 36.4039 24.0275 36.2733 24.2017L31.0994 31.1001C30.1608 32.3513 28.6667 33.0984 27.1025 33.0984H16.6698C14.1016 33.0984 12.1402 32.7083 10.4256 32.2512C10.4259 31.7725 10.4259 30.8893 10.4258 29.2354L10.4257 24.5432C11.6786 24.0831 13.5076 23.5058 14.2858 23.5058C14.8801 23.5058 16.4541 23.8938 17.8429 24.2363C19.4794 24.6398 20.8929 24.9882 21.6309 24.9882H25.969C26.3226 24.9882 26.6673 25.1315 26.896 25.4012C27.2715 25.844 27.2714 26.4867 26.8961 26.9295C26.6675 27.1991 26.3228 27.3424 25.9692 27.3424H19.5739C19.1541 27.3424 18.8139 27.6826 18.8139 28.1024C18.8139 28.5221 19.1541 28.8624 19.5739 28.8624H27.8741C29.0037 28.8624 29.429 28.3706 29.8793 27.8498C29.9696 27.7453 30.0632 27.6373 30.1715 27.5209L34.7044 22.6547C34.8997 22.445 35.1777 22.3272 35.4625 22.3285C36.0273 22.3285 36.4841 22.7885 36.4801 23.3534L36.4783 23.5938ZM18.4523 15.5433H22.748V10.0738H18.4523V15.5433ZM11.9736 10.0589H14.1454H14.1455H16.9323V15.9233C16.9323 16.5529 17.4427 17.0633 18.0723 17.0633H23.128C23.7576 17.0633 24.268 16.5529 24.268 15.9233V10.0589H27.0548H27.0549H29.2266V26.3051L29.0593 26.4849C28.9318 26.6218 28.8243 26.746 28.7295 26.8556C28.656 26.9407 28.5951 27.011 28.5416 27.0692C28.8078 26.3218 28.7336 25.4852 28.319 24.7874C27.8353 23.9737 26.9469 23.4682 26.0004 23.4682H21.6309C21.0774 23.4682 19.5523 23.0922 18.2068 22.7604C16.5909 22.362 15.0647 21.9858 14.2858 21.9858C13.6881 21.9858 12.8175 22.185 11.9736 22.4296V10.0589ZM14.5255 1.59602H17.5941V4.30876C17.5941 4.93835 18.1045 5.44876 18.7341 5.44876H22.4662C23.0959 5.44876 23.6062 4.93835 23.6062 4.30876V1.59602H26.6748V8.53892H14.5255V1.59602ZM19.1141 3.92876H22.0862V1.5961H19.1141V3.92876ZM35.4749 20.8086C34.7641 20.7995 34.0773 21.098 33.5922 21.6186L30.7466 24.6734V9.67892C30.7466 9.04934 30.2363 8.53892 29.6066 8.53892H28.1948V1.14002C28.1948 0.552387 27.7184 0.0760193 27.1308 0.0760193H23.6062H17.5941H14.1455C13.5159 0.0760193 13.0055 0.586435 13.0055 1.21602V8.53892H11.5936C10.9641 8.53892 10.4536 9.04934 10.4536 9.67892V22.9188C10.4376 22.9244 10.4212 22.9301 10.4054 22.9356C10.3147 22.3968 9.84717 21.9858 9.28249 21.9858H1.14C0.510416 21.9858 0 22.4962 0 23.1258V31.3029C0 31.7226 0.340328 32.0629 0.76 32.0629C1.17975 32.0629 1.52 31.7226 1.52 31.3029V23.5058H8.90249L8.90241 32.8278L8.89284 33.0984H3.3155C2.89575 33.0984 2.5555 33.4387 2.5555 33.8584C2.5555 34.2781 2.89575 34.6184 3.3155 34.6184H9.28249C9.79754 34.6184 10.2324 34.2766 10.3738 33.8076C12.0653 34.2393 14.1072 34.6184 16.6698 34.6184H27.1025C29.1426 34.6184 31.0913 33.6441 32.3154 32.0121L37.4893 25.1137C37.8136 24.6812 37.9944 24.1453 37.9983 23.6048L37.9999 23.3727C38.0101 21.9702 36.8773 20.8199 35.4749 20.8086Z" fill="#C8CDDA"/>
</g>
<path fill-rule="evenodd" clip-rule="evenodd" d="M0.740924 33.1475C0.331664 33.1475 0 33.4792 0 33.8884C0 34.2976 0.331664 34.6293 0.740924 34.6293C1.15011 34.6293 1.48185 34.2976 1.48185 33.8884C1.48185 33.4792 1.15011 33.1475 0.740924 33.1475Z" fill="#C8CDDA"/>
</svg>
