<svg width="38" height="30" viewBox="0 0 38 30" fill="none" xmlns="http://www.w3.org/2000/svg">
<path fill-rule="evenodd" clip-rule="evenodd" d="M20.9172 21.3302H18.0946C17.712 21.3302 17.4009 21.645 17.4009 22.0318C17.4009 22.4188 17.712 22.7335 18.0946 22.7335H20.9172C21.2997 22.7335 21.6108 22.4188 21.6108 22.0318C21.6108 21.645 21.2997 21.3302 20.9172 21.3302Z" fill="#C8CDDA"/>
<path fill-rule="evenodd" clip-rule="evenodd" d="M21.1746 3.08728H4.64612C4.25072 3.08728 3.9292 3.40201 3.9292 3.7889C3.9292 4.17585 4.25072 4.49058 4.64612 4.49058H21.1746C21.57 4.49058 21.8915 4.17585 21.8915 3.7889C21.8915 3.40201 21.57 3.08728 21.1746 3.08728Z" fill="#C8CDDA"/>
<mask id="mask0" mask-type="alpha" maskUnits="userSpaceOnUse" x="0" y="0" width="38" height="30">
<path fill-rule="evenodd" clip-rule="evenodd" d="M0 0.00302124H37.6085V29.4694H0V0.00302124Z" fill="white"/>
</mask>
<g mask="url(#mask0)">
<path fill-rule="evenodd" clip-rule="evenodd" d="M36.0861 16.7123V18.1162H35.2484C34.9147 18.1162 34.6442 17.8455 34.6442 17.5117V16.7123H36.0861ZM33.663 24.2125C33.6544 24.1619 33.6463 24.1114 33.6361 24.0613L33.6359 24.0602C33.2077 21.9784 31.3547 20.4675 29.2297 20.4675C27.7103 20.4675 26.3303 21.2402 25.5104 22.4418V19.3107C25.5104 18.8934 25.1723 18.5551 24.7552 18.5551C24.3381 18.5551 24 18.8934 24 19.3107V24.2359L23.9766 24.2125H12.8121C12.8037 24.1619 12.7955 24.1114 12.7852 24.0613L12.7851 24.0602C12.357 21.9784 10.5039 20.4675 8.37885 20.4675C6.25389 20.4675 4.40088 21.9784 3.97254 24.0611C3.96226 24.1113 3.95418 24.1619 3.94557 24.2125H1.51038V1.51427H23.9766V12.637H24V15.6596C24 16.0769 24.3381 16.4152 24.7552 16.4152C25.1723 16.4152 25.5104 16.0769 25.5104 15.6596V14.1483H34.9654C35.5638 14.1483 36.0526 14.6129 36.0941 15.2011H34.2666C33.641 15.2011 33.1338 15.7085 33.1338 16.3345V18.1162C33.1338 18.9509 33.8101 19.6274 34.6442 19.6274H36.0982V24.2125H33.663ZM32.1564 25.5714C31.872 26.9544 30.6412 27.9581 29.2297 27.9581C27.8182 27.9581 26.5874 26.9544 26.3032 25.5725C26.2627 25.3743 26.2422 25.1709 26.2422 24.9681C26.2422 24.7652 26.2627 24.5619 26.303 24.3648C26.5873 22.9823 27.8182 21.9788 29.2297 21.9788C30.6412 21.9788 31.8722 22.9823 32.1564 24.3648C32.1968 24.5627 32.2172 24.7656 32.2172 24.9681C32.2172 25.1709 32.1968 25.3743 32.1564 25.5714ZM11.3057 25.5714C11.0213 26.9544 9.79038 27.9581 8.37885 27.9581C6.9674 27.9581 5.73659 26.9544 5.45233 25.5725C5.41186 25.3743 5.39131 25.1709 5.39131 24.9681C5.39131 24.7652 5.41186 24.5619 5.45211 24.3648C5.73644 22.9823 6.96732 21.9788 8.37885 21.9788C9.79046 21.9788 11.0213 22.9823 11.3057 24.3648C11.346 24.5627 11.3664 24.7656 11.3664 24.9681C11.3664 25.1709 11.3459 25.3743 11.3057 25.5714ZM31.9296 9.04869L32.8263 12.637H25.487V9.04869H31.9296ZM25.5819 5.15125H31.1773C31.8029 5.15125 32.3101 5.65873 32.3101 6.28469V7.53744H25.5819V5.15125ZM35.343 12.637H34.3831L33.4193 8.77984C33.6645 8.57196 33.8205 8.26201 33.8205 7.91525V5.90687C33.8205 4.65495 32.8061 3.64 31.5549 3.64H25.487V1.13646C25.487 0.510424 24.9799 0.00302124 24.3542 0.00302124H1.13279C0.507187 0.00302124 0 0.510424 0 1.13646V24.5903C0 25.2163 0.507187 25.7238 1.13279 25.7238H3.94565C3.95418 25.7746 3.96242 25.8255 3.97276 25.876C4.40096 27.9581 6.25397 29.4694 8.37885 29.4694C10.5038 29.4694 12.3568 27.9581 12.7852 25.875C12.7955 25.8249 12.8037 25.7742 12.8121 25.7238H24.7964C24.805 25.7746 24.8133 25.8255 24.8235 25.876C25.2518 27.9581 27.1048 29.4694 29.2297 29.4694C31.3546 29.4694 33.2077 27.9581 33.6361 25.875C33.6463 25.8249 33.6544 25.7742 33.663 25.7238H36.4758C37.1014 25.7238 37.6086 25.2163 37.6086 24.5903V14.9039C37.6086 13.652 36.5943 12.637 35.343 12.637Z" fill="#C8CDDA"/>
</g>
<path fill-rule="evenodd" clip-rule="evenodd" d="M29.1886 23.8562C28.5686 23.8562 28.0659 24.3588 28.0659 24.9788C28.0659 25.5988 28.5686 26.1015 29.1886 26.1015C29.8086 26.1015 30.3112 25.5988 30.3112 24.9788C30.3112 24.3588 29.8086 23.8562 29.1886 23.8562Z" fill="#C8CDDA"/>
<path fill-rule="evenodd" clip-rule="evenodd" d="M8.42001 23.8562C7.80001 23.8562 7.29736 24.3588 7.29736 24.9788C7.29736 25.5988 7.80001 26.1015 8.42001 26.1015C9.04001 26.1015 9.54265 25.5988 9.54265 24.9788C9.54265 24.3588 9.04001 23.8562 8.42001 23.8562Z" fill="#C8CDDA"/>
</svg>
