<svg viewBox="0 0 30 39"  xmlns="http://www.w3.org/2000/svg">
    <path fill-rule="evenodd" clip-rule="evenodd" d="M24.7181 9.71832H8.62641C8.15153 9.71832 7.76514 10.0825 7.76514 10.5302C7.76514 10.9779 8.15153 11.3422 8.62641 11.3422H24.7181C25.193 11.3422 25.5793 10.9779 25.5793 10.5302C25.5793 10.0825 25.193 9.71832 24.7181 9.71832Z" fill="#C8CDDA"/>
    <path fill-rule="evenodd" clip-rule="evenodd" d="M25.5793 14.8471C25.5793 14.3917 25.2495 14.0351 24.8286 14.0351H8.51589C8.09491 14.0351 7.76514 14.3917 7.76514 14.8471C7.76514 15.3023 8.09491 15.6589 8.51589 15.6589H24.8286C25.2495 15.6589 25.5793 15.3023 25.5793 14.8471Z" fill="#C8CDDA"/>
    <path fill-rule="evenodd" clip-rule="evenodd" d="M24.7182 18.352H15.6157C15.1408 18.352 14.7544 18.7162 14.7544 19.1639C14.7544 19.6115 15.1408 19.9757 15.6157 19.9757H24.7182C25.193 19.9757 25.5794 19.6115 25.5794 19.1639C25.5794 18.7162 25.193 18.352 24.7182 18.352Z" fill="#C8CDDA"/>
    <path fill-rule="evenodd" clip-rule="evenodd" d="M24.8287 22.6688H19.1058C18.6848 22.6688 18.355 23.0254 18.355 23.4807C18.355 23.936 18.6848 24.2926 19.1058 24.2926H24.8287C25.2496 24.2926 25.5793 23.936 25.5793 23.4807C25.5793 23.0254 25.2496 22.6688 24.8287 22.6688Z" fill="#C8CDDA"/>
    <path fill-rule="evenodd" clip-rule="evenodd" d="M24.8284 26.9856H17.6936C17.2727 26.9856 16.9429 27.3422 16.9429 27.7975C16.9429 28.2528 17.2727 28.6094 17.6936 28.6094H24.8284C25.2495 28.6094 25.5792 28.2528 25.5792 27.7975C25.5792 27.3422 25.2495 26.9856 24.8284 26.9856Z" fill="#C8CDDA"/>
    <mask id="mask0" mask-type="alpha" maskUnits="userSpaceOnUse" x="0" y="0" width="30" height="38">
    <path fill-rule="evenodd" clip-rule="evenodd" d="M0 0.140381H29.9605V37.7346H0V0.140381Z" fill="white"/>
    </mask>
    <g mask="url(#mask0)">
    <path fill-rule="evenodd" clip-rule="evenodd" d="M24.6662 2.17219L24.8198 2.32579L24.8196 2.32594L25.8679 3.37422L25.868 3.37414L27.9288 5.43519H24.6662V2.17219ZM29.2906 34.1377C28.9544 34.1053 28.6192 34.3053 28.5093 34.6625C28.4868 34.7362 28.4777 34.8129 28.4777 34.8903V36.252H4.86654V32.6256C5.11842 32.731 5.37774 32.8234 5.64474 32.9023C9.95744 34.1814 14.4447 31.6038 15.5454 27.285C15.8756 25.9896 15.8628 24.685 15.5642 23.4693C15.4237 22.8934 14.7079 22.6941 14.2944 23.1181C14.1123 23.3047 14.041 23.5715 14.1034 23.8242C14.3492 24.8264 14.3559 25.9031 14.0732 26.9708C13.2153 30.2152 9.94391 32.2611 6.65301 31.6046C6.01083 31.4768 5.41165 31.2572 4.86654 30.9641C4.31383 30.6663 3.81609 30.2926 3.38376 29.8602C1.84098 28.3167 1.12594 26.0211 1.70263 23.7572C2.57248 20.3422 6.05895 18.2723 9.47331 19.1422C9.80414 19.2264 10.1221 19.3354 10.4259 19.4663C10.7086 19.5889 11.0371 19.5181 11.2523 19.2978C11.398 19.149 11.4665 18.9602 11.4665 18.7738C11.4665 18.4889 11.3063 18.2091 11.0147 18.0835C10.6417 17.9226 10.2507 17.7888 9.84466 17.685C8.12504 17.2467 6.39083 17.4127 4.86654 18.0485V1.62294H23.1836V5.82354C23.1836 6.42797 23.6735 6.91782 24.278 6.91782H28.4777V31.2435C28.4777 31.3208 28.4864 31.3984 28.5087 31.4723C28.6175 31.8311 28.9539 32.0311 29.2907 31.9993C29.6662 31.9635 29.9604 31.6327 29.9604 31.2463V5.67564C29.9604 5.47752 29.8832 5.29128 29.7432 5.15136L24.9476 0.357449C24.8076 0.217449 24.6214 0.140381 24.4235 0.140381H4.47827C3.87399 0.140381 3.38399 0.630306 3.38399 1.23467V18.8614C1.80195 19.9623 0.612105 21.6426 0.17406 23.6896C-0.50421 26.8557 0.848496 30.04 3.38376 31.8129V36.6399C3.38376 37.2444 3.87398 37.7347 4.47857 37.7347H28.8658C29.4703 37.7347 29.9605 37.2444 29.9605 36.6399V34.8903C29.9605 34.5039 29.6665 34.1738 29.2906 34.1377Z" fill="#C8CDDA"/>
    </g>
    <path fill-rule="evenodd" clip-rule="evenodd" d="M12.6597 20.265L6.99778 27.0126L5.03335 23.6101C4.84477 23.2835 4.38808 23.2059 3.99387 23.4335C3.59959 23.6611 3.43846 24.0953 3.6271 24.422L6.19124 28.8631C6.20064 28.8795 6.21116 28.8947 6.22199 28.9098C6.25673 28.9615 6.29808 29.0092 6.34748 29.0507C6.69628 29.3434 7.25936 29.227 7.62959 28.7858L13.9036 21.3088C14.2737 20.8677 14.2906 20.2928 13.9418 20.0002C13.593 19.7075 13.0299 19.8239 12.6597 20.265Z" fill="#C8CDDA"/>
</svg>
