<svg width="38" height="38" viewBox="0 0 38 38" fill="none" xmlns="http://www.w3.org/2000/svg">
<path fill-rule="evenodd" clip-rule="evenodd" d="M35.697 33.4867H13.7551C13.7903 33.2454 13.808 32.9987 13.808 32.7474C13.808 32.4961 13.7903 32.2487 13.7551 32.0073H18.8066H26.2015H31.5832H35.697C36.1046 32.0073 36.4363 32.3391 36.4363 32.7474C36.4363 33.155 36.1046 33.4867 35.697 33.4867ZM8.63199 36.3911C6.62244 36.3911 4.98752 34.7562 4.98752 32.7474C4.98752 31.5959 5.52381 30.5678 6.36042 29.8997C6.79941 29.5481 7.32191 29.296 7.89268 29.1788C8.13171 29.129 8.37917 29.1029 8.63199 29.1029C8.88482 29.1029 9.13228 29.129 9.37131 29.1788C9.94208 29.296 10.4638 29.5481 10.9036 29.8997C11.1158 30.0698 11.3088 30.2629 11.4789 30.4751C11.8306 30.9148 12.0819 31.4366 12.2006 32.0073C12.2497 32.2464 12.2757 32.4938 12.2757 32.7474C12.2757 33.001 12.2497 33.2477 12.1999 33.4867C12.0826 34.0575 11.8306 34.58 11.4789 35.019C10.8109 35.8548 9.78272 36.3911 8.63199 36.3911ZM7.12655 3.01931H2.29718C1.90331 3.01931 1.55924 2.72205 1.53389 2.32895C1.50608 1.89846 1.84777 1.54068 2.27236 1.54068H9.37131V27.6235C9.12998 27.5883 8.88329 27.5707 8.63199 27.5707C8.3807 27.5707 8.13401 27.5883 7.89268 27.6235V3.78544C7.89268 3.36231 7.54968 3.01931 7.12655 3.01931ZM13.808 4.5518H16.9013V7.28642C16.9013 7.92108 17.4157 8.43561 18.0505 8.43561H21.8127C22.4474 8.43561 22.9619 7.92108 22.9619 7.28642V4.5518H26.0552V11.5507H13.808V4.5518ZM18.4335 6.90335H21.4296V4.5518H18.4335V6.90335ZM20.3388 18.6116H24.6692V13.0979H20.3388V18.6116ZM20.3388 30.4751H24.6692V27.9608H20.3388V30.4751ZM31.2001 30.4751H26.2015V27.5778C26.2015 26.9431 25.6869 26.4286 25.0523 26.4286H19.9558C19.3211 26.4286 18.8066 26.9431 18.8066 27.5778V30.4751H13.808V13.083H18.8066V18.9946C18.8066 19.6294 19.3211 20.1438 19.9558 20.1438H25.0523C25.6869 20.1438 26.2015 19.6294 26.2015 18.9946V13.083H26.4383H31.2001V30.4751ZM35.697 30.4751H32.7323V12.6999C32.7323 12.0652 32.2178 11.5507 31.5832 11.5507H27.5875V4.09212C27.5875 3.49975 27.1073 3.01954 26.5149 3.01954H22.9619H16.9013H13.4249C12.7902 3.01954 12.2757 3.53407 12.2757 4.16873V11.9338C12.2757 12.0683 12.3 12.1968 12.3425 12.3168C12.3 12.4368 12.2757 12.5654 12.2757 12.6999V29.0711C11.8767 28.6755 11.4139 28.3442 10.9036 28.0947V1.15762C10.9036 0.522955 10.3891 0.00842285 9.75437 0.00842285H2.32009C1.08394 0.00842285 0.0376359 0.975814 0.00101496 2.2115C-0.036985 3.49523 0.996983 4.55157 2.27236 4.55157H6.36042V28.0947C4.6397 28.9359 3.45526 30.7034 3.45526 32.7474C3.45526 35.6058 5.7728 37.9234 8.632 37.9234C10.6753 37.9234 12.4427 36.7389 13.2839 35.019H35.697C36.9497 35.019 37.9686 34 37.9686 32.7474C37.9686 31.4948 36.9497 30.4751 35.697 30.4751Z" fill="#C8CDDA"/>
<path fill-rule="evenodd" clip-rule="evenodd" d="M8.61134 33.717C8.18354 33.717 7.83676 33.3702 7.83676 32.9424C7.83676 32.5146 8.18354 32.1678 8.61134 32.1678C9.03906 32.1678 9.38592 32.5146 9.38592 32.9424C9.38592 33.3702 9.03906 33.717 8.61134 33.717ZM8.61134 30.6187C7.33003 30.6187 6.2876 31.6611 6.2876 32.9424C6.2876 34.2237 7.33003 35.2661 8.61134 35.2661C9.89265 35.2661 10.9351 34.2237 10.9351 32.9424C10.9351 31.6611 9.89265 30.6187 8.61134 30.6187Z" fill="#C8CDDA"/>
</svg>
